<svg width="402" height="146" viewBox="0 0 402 146" fill="none" xmlns="http://www.w3.org/2000/svg">
<g filter="url(#filter0_d_70_98)">
<rect x="10" y="10" width="376" height="120" rx="35" fill="white"/>
</g>
<path d="M42.0996 59.5039C42.1908 59.888 42.3926 60.2656 42.7051 60.6367C43.0241 61.0078 43.418 61.3105 43.8867 61.5449C44.3555 61.7793 44.8568 61.8965 45.3906 61.8965C45.9505 61.8965 46.4746 61.7891 46.9629 61.5742C47.4577 61.3594 47.8548 61.0599 48.1543 60.6758C48.4538 60.2917 48.6035 59.8587 48.6035 59.377C48.6035 58.1009 47.5521 57.043 45.4492 56.2031L44.7852 55.9395C44.2643 55.7441 43.8411 55.5651 43.5156 55.4023C42.8646 55.0833 42.4056 54.7806 42.1387 54.4941C41.9889 54.3444 41.8164 54.1263 41.6211 53.8398C41.2826 53.3451 41.1133 52.7005 41.1133 51.9062C41.1133 51.2096 41.2923 50.5977 41.6504 50.0703C42.015 49.5365 42.5098 49.1263 43.1348 48.8398C43.7598 48.5469 44.4564 48.4004 45.2246 48.4004C45.9733 48.4004 46.6536 48.5273 47.2656 48.7812C47.8776 49.0286 48.3919 49.3737 48.8086 49.8164C49.2253 50.2591 49.5247 50.7669 49.707 51.3398L48.2227 51.584C48.1185 51.265 47.9232 50.9688 47.6367 50.6953C47.3568 50.4154 47.0085 50.194 46.5918 50.0312C46.1751 49.862 45.7292 49.7773 45.2539 49.7773C44.7656 49.7773 44.3262 49.8717 43.9355 50.0605C43.5514 50.2428 43.2487 50.4967 43.0273 50.8223C42.806 51.1413 42.6953 51.5026 42.6953 51.9062C42.6953 52.4141 42.8288 52.8438 43.0957 53.1953C43.3626 53.5469 43.6882 53.8138 44.0723 53.9961C44.3978 54.1589 44.6517 54.2793 44.834 54.3574C45.0163 54.4355 45.2669 54.5365 45.5859 54.6602C46.2695 54.9206 46.7936 55.1452 47.1582 55.334C47.9004 55.7116 48.4505 56.0794 48.8086 56.4375C49.0495 56.6784 49.2676 56.9388 49.4629 57.2188C49.8861 57.8112 50.0977 58.5339 50.0977 59.3867C50.0977 60.2461 49.8763 60.9753 49.4336 61.5742C48.5742 62.7135 47.1842 63.2832 45.2637 63.2832C44.0592 63.2832 43.0501 62.9772 42.2363 62.3652C41.429 61.7467 40.8301 60.8939 40.4395 59.8066L42.0996 59.5039ZM55.2246 56.9844L59.7266 63H58.0273L54.3262 58L53.291 59.2988V63H51.8066V48.8008H53.291V57.3164L57.2852 52.5215H58.9844L55.2246 56.9844ZM61.0449 50.0117C61.0449 49.7448 61.1328 49.5202 61.3086 49.3379C61.4909 49.1556 61.7025 49.0645 61.9434 49.0645C62.1908 49.0645 62.4089 49.1491 62.5977 49.3184C62.7865 49.4876 62.8809 49.6992 62.8809 49.9531C62.8809 50.2135 62.7897 50.4382 62.6074 50.627C62.4316 50.8092 62.2266 50.9004 61.9922 50.9004C61.7448 50.9004 61.5234 50.819 61.3281 50.6562C61.1393 50.487 61.0449 50.2721 61.0449 50.0117ZM61.2305 52.5215H62.7051V63H61.2305V52.5215ZM66.9043 60.9785C66.9043 61.6621 67.2917 62.0039 68.0664 62.0039V63.2832C67.2331 63.2832 66.5853 63.1237 66.123 62.8047C65.6608 62.4792 65.4297 61.8835 65.4297 61.0176V48.8008H66.9043V60.9785ZM71.1035 60.9785C71.1035 61.6621 71.4909 62.0039 72.2656 62.0039V63.2832C71.4323 63.2832 70.7845 63.1237 70.3223 62.8047C69.86 62.4792 69.6289 61.8835 69.6289 61.0176V48.8008H71.1035V60.9785ZM77.0801 58.3809C76.5462 58.2051 76.1523 58.0684 75.8984 57.9707C75.651 57.8665 75.3743 57.7266 75.0684 57.5508C74.7493 57.375 74.4824 57.1732 74.2676 56.9453C73.7858 56.444 73.5449 55.7865 73.5449 54.9727C73.5449 54.4453 73.6914 53.9798 73.9844 53.5762C74.2839 53.1725 74.6908 52.86 75.2051 52.6387C75.7194 52.4108 76.2988 52.2904 76.9434 52.2773C78.3431 52.2773 79.3783 52.7786 80.0488 53.7812C80.2051 54.0156 80.3223 54.2533 80.4004 54.4941L78.9746 54.7871C78.623 53.9928 77.9525 53.5957 76.9629 53.5957C76.416 53.5957 75.957 53.7292 75.5859 53.9961C75.2214 54.2565 75.0391 54.6113 75.0391 55.0605C75.0391 55.2884 75.0684 55.4674 75.127 55.5977C75.1855 55.7279 75.2409 55.8288 75.293 55.9004C75.3516 55.9655 75.3874 56.0078 75.4004 56.0273C75.446 56.1055 75.5273 56.1803 75.6445 56.252C75.7487 56.3301 75.8366 56.3887 75.9082 56.4277C75.9668 56.4733 76.0645 56.5221 76.2012 56.5742L76.4648 56.6914C76.5885 56.7435 76.7122 56.7891 76.8359 56.8281L77.3926 57.0234L77.8613 57.1992C78.0046 57.2513 78.1706 57.3197 78.3594 57.4043C78.5547 57.4824 78.7109 57.5508 78.8281 57.6094C79.2188 57.8242 79.5085 58.0195 79.6973 58.1953C79.9902 58.4753 80.2018 58.7552 80.332 59.0352C80.4883 59.3932 80.5664 59.7806 80.5664 60.1973C80.5664 60.7832 80.4036 61.3105 80.0781 61.7793C79.7591 62.248 79.3262 62.6159 78.7793 62.8828C78.2324 63.1497 77.6335 63.2832 76.9824 63.2832C76.0254 63.2832 75.2376 63.0716 74.6191 62.6484C74.0007 62.2253 73.5612 61.6361 73.3008 60.8809L74.7363 60.6074C74.9447 61.0632 75.2214 61.4049 75.5664 61.6328C75.9115 61.8542 76.3867 61.9648 76.9922 61.9648C77.6237 61.9648 78.125 61.8086 78.4961 61.4961C78.8737 61.1771 79.0625 60.7441 79.0625 60.1973C79.0625 59.7285 78.8802 59.3574 78.5156 59.084C78.1576 58.8105 77.679 58.5762 77.0801 58.3809ZM82.6855 63H81.1426L88.1445 47.9219H89.6875L82.6855 63ZM90.1172 48.7812H100.781V50.1582H96.3184V63H94.7754V50.1582H90.1172V48.7812ZM104.336 62.5312C103.704 62.043 103.223 61.3952 102.891 60.5879C102.565 59.7741 102.402 58.8952 102.402 57.9512C102.402 57.0658 102.49 56.2943 102.666 55.6367C102.848 54.9727 103.118 54.3867 103.477 53.8789C104.219 52.8372 105.283 52.3164 106.67 52.3164C107.568 52.3164 108.346 52.5605 109.004 53.0488C110.286 54.0059 110.928 55.5749 110.928 57.7559C110.928 59.9694 110.293 61.5612 109.023 62.5312C108.366 63.0326 107.585 63.2832 106.68 63.2832C105.775 63.2832 104.993 63.0326 104.336 62.5312ZM105.078 54.2109C104.674 54.5755 104.378 55.0508 104.189 55.6367C104.001 56.2161 103.906 56.8704 103.906 57.5996C103.906 58.2832 103.958 58.8757 104.062 59.377C104.167 59.8717 104.326 60.3177 104.541 60.7148C105.003 61.5482 105.713 61.9648 106.67 61.9648C108.044 61.9648 108.91 61.1022 109.268 59.377C109.372 58.8952 109.424 58.3027 109.424 57.5996C109.424 56.8704 109.329 56.2161 109.141 55.6367C108.952 55.0508 108.656 54.5755 108.252 54.2109C107.835 53.8333 107.308 53.6445 106.67 53.6445C106.025 53.6445 105.495 53.8333 105.078 54.2109ZM114.629 62.5312C113.997 62.043 113.516 61.3952 113.184 60.5879C112.858 59.7741 112.695 58.8952 112.695 57.9512C112.695 57.0658 112.783 56.2943 112.959 55.6367C113.141 54.9727 113.411 54.3867 113.77 53.8789C114.512 52.8372 115.576 52.3164 116.963 52.3164C117.861 52.3164 118.639 52.5605 119.297 53.0488C120.579 54.0059 121.221 55.5749 121.221 57.7559C121.221 59.9694 120.586 61.5612 119.316 62.5312C118.659 63.0326 117.878 63.2832 116.973 63.2832C116.068 63.2832 115.286 63.0326 114.629 62.5312ZM115.371 54.2109C114.967 54.5755 114.671 55.0508 114.482 55.6367C114.294 56.2161 114.199 56.8704 114.199 57.5996C114.199 58.2832 114.251 58.8757 114.355 59.377C114.46 59.8717 114.619 60.3177 114.834 60.7148C115.296 61.5482 116.006 61.9648 116.963 61.9648C118.337 61.9648 119.202 61.1022 119.561 59.377C119.665 58.8952 119.717 58.3027 119.717 57.5996C119.717 56.8704 119.622 56.2161 119.434 55.6367C119.245 55.0508 118.949 54.5755 118.545 54.2109C118.128 53.8333 117.601 53.6445 116.963 53.6445C116.318 53.6445 115.788 53.8333 115.371 54.2109ZM124.932 60.9785C124.932 61.6621 125.319 62.0039 126.094 62.0039V63.2832C125.26 63.2832 124.613 63.1237 124.15 62.8047C123.688 62.4792 123.457 61.8835 123.457 61.0176V48.8008H124.932V60.9785ZM130.908 58.3809C130.374 58.2051 129.98 58.0684 129.727 57.9707C129.479 57.8665 129.202 57.7266 128.896 57.5508C128.577 57.375 128.311 57.1732 128.096 56.9453C127.614 56.444 127.373 55.7865 127.373 54.9727C127.373 54.4453 127.52 53.9798 127.812 53.5762C128.112 53.1725 128.519 52.86 129.033 52.6387C129.548 52.4108 130.127 52.2904 130.771 52.2773C132.171 52.2773 133.206 52.7786 133.877 53.7812C134.033 54.0156 134.15 54.2533 134.229 54.4941L132.803 54.7871C132.451 53.9928 131.781 53.5957 130.791 53.5957C130.244 53.5957 129.785 53.7292 129.414 53.9961C129.049 54.2565 128.867 54.6113 128.867 55.0605C128.867 55.2884 128.896 55.4674 128.955 55.5977C129.014 55.7279 129.069 55.8288 129.121 55.9004C129.18 55.9655 129.215 56.0078 129.229 56.0273C129.274 56.1055 129.355 56.1803 129.473 56.252C129.577 56.3301 129.665 56.3887 129.736 56.4277C129.795 56.4733 129.893 56.5221 130.029 56.5742L130.293 56.6914C130.417 56.7435 130.54 56.7891 130.664 56.8281L131.221 57.0234L131.689 57.1992C131.833 57.2513 131.999 57.3197 132.188 57.4043C132.383 57.4824 132.539 57.5508 132.656 57.6094C133.047 57.8242 133.337 58.0195 133.525 58.1953C133.818 58.4753 134.03 58.7552 134.16 59.0352C134.316 59.3932 134.395 59.7806 134.395 60.1973C134.395 60.7832 134.232 61.3105 133.906 61.7793C133.587 62.248 133.154 62.6159 132.607 62.8828C132.061 63.1497 131.462 63.2832 130.811 63.2832C129.854 63.2832 129.066 63.0716 128.447 62.6484C127.829 62.2253 127.389 61.6361 127.129 60.8809L128.564 60.6074C128.773 61.0632 129.049 61.4049 129.395 61.6328C129.74 61.8542 130.215 61.9648 130.82 61.9648C131.452 61.9648 131.953 61.8086 132.324 61.4961C132.702 61.1771 132.891 60.7441 132.891 60.1973C132.891 59.7285 132.708 59.3574 132.344 59.084C131.986 58.8105 131.507 58.5762 130.908 58.3809ZM136.299 54.9824C136.299 54.6829 136.4 54.429 136.602 54.2207C136.81 54.0124 137.054 53.9082 137.334 53.9082C137.614 53.9082 137.861 54.0059 138.076 54.2012C138.291 54.39 138.398 54.6309 138.398 54.9238C138.398 55.2298 138.298 55.487 138.096 55.6953C137.894 55.9036 137.656 56.0078 137.383 56.0078C137.096 56.0078 136.842 55.9134 136.621 55.7246C136.406 55.5293 136.299 55.2819 136.299 54.9824ZM136.299 62.1016C136.299 61.8021 136.4 61.5482 136.602 61.3398C136.81 61.1315 137.054 61.0273 137.334 61.0273C137.614 61.0273 137.861 61.125 138.076 61.3203C138.291 61.5091 138.398 61.75 138.398 62.043C138.398 62.349 138.298 62.6061 138.096 62.8145C137.894 63.0228 137.656 63.127 137.383 63.127C137.096 63.127 136.842 63.0326 136.621 62.8438C136.406 62.6484 136.299 62.401 136.299 62.1016ZM40.7227 78.7812H42.5L46.0352 84.6992L49.502 78.7812H51.2793L46.8555 85.8809L51.3379 93H49.4824L46.0352 87.2773L42.5195 93H40.7812L45.2246 85.8809L40.7227 78.7812ZM59.1309 85.0996C59.0527 84.8783 58.9062 84.6536 58.6914 84.4258C58.4831 84.1979 58.2357 84.0124 57.9492 83.8691C57.6693 83.7194 57.3861 83.6445 57.0996 83.6445C56.5527 83.6445 56.0482 83.8236 55.5859 84.1816C55.1302 84.5332 54.7656 85.028 54.4922 85.666C54.2253 86.2975 54.0918 87.0137 54.0918 87.8145C54.0918 88.6152 54.222 89.3314 54.4824 89.9629C54.7428 90.5944 55.1009 91.0859 55.5566 91.4375C56.0124 91.7891 56.5202 91.9648 57.0801 91.9648C57.8288 91.9648 58.457 91.597 58.9648 90.8613C59.0495 90.7376 59.1341 90.5911 59.2188 90.4219L60.4102 91.1738C60.026 91.8118 59.5475 92.3229 58.9746 92.707C58.4017 93.0911 57.7409 93.2832 56.9922 93.2832C56.1979 93.2832 55.459 93.0358 54.7754 92.541C54.0918 92.0462 53.5579 91.3757 53.1738 90.5293C52.7897 89.6829 52.5977 88.7585 52.5977 87.7559C52.5977 86.623 52.8125 85.6465 53.2422 84.8262C53.6784 84.0059 54.2415 83.3841 54.9316 82.9609C55.6217 82.5312 56.3444 82.3164 57.0996 82.3164C57.8158 82.3164 58.4538 82.5085 59.0137 82.8926C59.5736 83.2767 60.0391 83.7975 60.4102 84.4551L59.1309 85.0996ZM63.7891 92.5312C63.1576 92.043 62.6758 91.3952 62.3438 90.5879C62.0182 89.7741 61.8555 88.8952 61.8555 87.9512C61.8555 87.0658 61.9434 86.2943 62.1191 85.6367C62.3014 84.9727 62.5716 84.3867 62.9297 83.8789C63.6719 82.8372 64.7363 82.3164 66.123 82.3164C67.0215 82.3164 67.7995 82.5605 68.457 83.0488C69.7396 84.0059 70.3809 85.5749 70.3809 87.7559C70.3809 89.9694 69.7461 91.5612 68.4766 92.5312C67.819 93.0326 67.0378 93.2832 66.1328 93.2832C65.2279 93.2832 64.4466 93.0326 63.7891 92.5312ZM64.5312 84.2109C64.1276 84.5755 63.8314 85.0508 63.6426 85.6367C63.4538 86.2161 63.3594 86.8704 63.3594 87.5996C63.3594 88.2832 63.4115 88.8757 63.5156 89.377C63.6198 89.8717 63.7793 90.3177 63.9941 90.7148C64.4564 91.5482 65.166 91.9648 66.123 91.9648C67.4967 91.9648 68.3626 91.1022 68.7207 89.377C68.8249 88.8952 68.877 88.3027 68.877 87.5996C68.877 86.8704 68.7826 86.2161 68.5938 85.6367C68.4049 85.0508 68.1087 84.5755 67.7051 84.2109C67.2884 83.8333 66.7611 83.6445 66.123 83.6445C65.4785 83.6445 64.9479 83.8333 64.5312 84.2109ZM75.7227 82.2383C77.0768 82.2383 78.0501 82.9414 78.6426 84.3477V78.8008H80.127V93H78.6426V91.2031C78.3496 91.8737 77.9753 92.388 77.5195 92.7461C77.0703 93.1042 76.5039 93.2832 75.8203 93.2832C75.1237 93.2832 74.515 93.1302 73.9941 92.8242C73.4798 92.5182 73.0697 92.0918 72.7637 91.5449C72.1647 90.4772 71.8652 89.2077 71.8652 87.7363C71.8652 86.252 72.1647 84.9857 72.7637 83.9375C73.0632 83.4036 73.4668 82.987 73.9746 82.6875C74.4889 82.388 75.0716 82.2383 75.7227 82.2383ZM74.1211 84.6699C73.6198 85.4186 73.3691 86.4408 73.3691 87.7363C73.3691 88.5892 73.4831 89.3346 73.7109 89.9727C73.9388 90.6107 74.2513 91.1022 74.6484 91.4473C75.0521 91.7923 75.5046 91.9648 76.0059 91.9648C76.5072 91.9648 76.9629 91.7923 77.373 91.4473C77.7832 91.1022 78.1055 90.6107 78.3398 89.9727C78.5742 89.3281 78.6914 88.5859 78.6914 87.7461C78.6914 86.9062 78.571 86.1706 78.3301 85.5391C78.0957 84.9076 77.7734 84.4225 77.3633 84.084C76.9596 83.7389 76.5039 83.5664 75.9961 83.5664C75.2474 83.5664 74.6224 83.9342 74.1211 84.6699ZM90.3809 88.4199H83.8574C83.9616 89.7806 84.375 90.7865 85.0977 91.4375C85.4818 91.7891 85.9115 91.9648 86.3867 91.9648C86.875 91.9648 87.347 91.8411 87.8027 91.5938C88.2585 91.3398 88.5905 91.0176 88.7988 90.627L90.0977 91.1641C89.7656 91.8086 89.2578 92.3229 88.5742 92.707C87.8971 93.0911 87.1549 93.2832 86.3477 93.2832C85.5534 93.2832 84.8405 93.0358 84.209 92.541C83.5775 92.0462 83.1022 91.3822 82.7832 90.5488C82.4642 89.7285 82.3047 88.7975 82.3047 87.7559C82.3047 86.7142 82.4642 85.7897 82.7832 84.9824C83.1087 84.1686 83.5807 83.5208 84.1992 83.0391C84.8307 82.5573 85.5143 82.3164 86.25 82.3164C86.9596 82.3164 87.5749 82.4596 88.0957 82.7461C88.6165 83.026 89.043 83.4232 89.375 83.9375C90.0391 84.9401 90.3711 86.1217 90.3711 87.4824L90.3809 88.4199ZM88.9551 87.1016C88.916 86.4701 88.7858 85.8906 88.5645 85.3633C88.3431 84.8359 88.0436 84.4193 87.666 84.1133C87.2949 83.8008 86.875 83.6445 86.4062 83.6445C85.9115 83.6445 85.4688 83.8203 85.0781 84.1719C84.3555 84.8294 83.9486 85.806 83.8574 87.1016H88.9551ZM93.291 91.0273C93.5384 91.0273 93.7598 91.1022 93.9551 91.252C94.1504 91.4017 94.2676 91.5579 94.3066 91.7207C94.3392 91.8835 94.3555 92.0397 94.3555 92.1895C94.3555 92.3587 94.3294 92.5671 94.2773 92.8145C94.2318 93.0618 94.1732 93.2832 94.1016 93.4785C94.0365 93.6543 93.9518 93.8431 93.8477 94.0449C93.7435 94.2467 93.6491 94.4128 93.5645 94.543C93.5579 94.5495 93.4766 94.6764 93.3203 94.9238L93.1543 95.1582L92.6074 94.8555C93.0762 94.1849 93.3105 93.6055 93.3105 93.1172C93.1348 93.1172 92.9655 93.0749 92.8027 92.9902C92.64 92.9056 92.5065 92.7884 92.4023 92.6387C92.3047 92.4824 92.2559 92.3034 92.2559 92.1016C92.2559 91.8021 92.3568 91.5482 92.5586 91.3398C92.7669 91.1315 93.0111 91.0273 93.291 91.0273ZM103.271 89.5039C103.363 89.888 103.564 90.2656 103.877 90.6367C104.196 91.0078 104.59 91.3105 105.059 91.5449C105.527 91.7793 106.029 91.8965 106.562 91.8965C107.122 91.8965 107.646 91.7891 108.135 91.5742C108.63 91.3594 109.027 91.0599 109.326 90.6758C109.626 90.2917 109.775 89.8587 109.775 89.377C109.775 88.1009 108.724 87.043 106.621 86.2031L105.957 85.9395C105.436 85.7441 105.013 85.5651 104.688 85.4023C104.036 85.0833 103.577 84.7806 103.311 84.4941C103.161 84.3444 102.988 84.1263 102.793 83.8398C102.454 83.3451 102.285 82.7005 102.285 81.9062C102.285 81.2096 102.464 80.5977 102.822 80.0703C103.187 79.5365 103.682 79.1263 104.307 78.8398C104.932 78.5469 105.628 78.4004 106.396 78.4004C107.145 78.4004 107.826 78.5273 108.438 78.7812C109.049 79.0286 109.564 79.3737 109.98 79.8164C110.397 80.2591 110.697 80.7669 110.879 81.3398L109.395 81.584C109.29 81.265 109.095 80.9688 108.809 80.6953C108.529 80.4154 108.18 80.194 107.764 80.0312C107.347 79.862 106.901 79.7773 106.426 79.7773C105.938 79.7773 105.498 79.8717 105.107 80.0605C104.723 80.2428 104.421 80.4967 104.199 80.8223C103.978 81.1413 103.867 81.5026 103.867 81.9062C103.867 82.4141 104.001 82.8438 104.268 83.1953C104.535 83.5469 104.86 83.8138 105.244 83.9961C105.57 84.1589 105.824 84.2793 106.006 84.3574C106.188 84.4355 106.439 84.5365 106.758 84.6602C107.441 84.9206 107.965 85.1452 108.33 85.334C109.072 85.7116 109.622 86.0794 109.98 86.4375C110.221 86.6784 110.439 86.9388 110.635 87.2188C111.058 87.8112 111.27 88.5339 111.27 89.3867C111.27 90.2461 111.048 90.9753 110.605 91.5742C109.746 92.7135 108.356 93.2832 106.436 93.2832C105.231 93.2832 104.222 92.9772 103.408 92.3652C102.601 91.7467 102.002 90.8939 101.611 89.8066L103.271 89.5039ZM118.535 84.582L116.318 93H115.176L112.383 82.5215H113.877L115.762 90.5586L117.803 82.5996H119.277L121.318 90.5586L123.203 82.5215H124.697L121.895 93H120.703L118.535 84.582ZM126.416 80.0117C126.416 79.7448 126.504 79.5202 126.68 79.3379C126.862 79.1556 127.074 79.0645 127.314 79.0645C127.562 79.0645 127.78 79.1491 127.969 79.3184C128.158 79.4876 128.252 79.6992 128.252 79.9531C128.252 80.2135 128.161 80.4382 127.979 80.627C127.803 80.8092 127.598 80.9004 127.363 80.9004C127.116 80.9004 126.895 80.819 126.699 80.6562C126.51 80.487 126.416 80.2721 126.416 80.0117ZM126.602 82.5215H128.076V93H126.602V82.5215ZM133.398 83.8398V93H131.914V83.8398H130.557V82.5215H131.904V81.2031C131.904 80.8255 131.995 80.4642 132.178 80.1191C132.367 79.7676 132.611 79.4779 132.91 79.25C133.522 78.7747 134.062 78.5371 134.531 78.5371C134.967 78.5371 135.309 78.599 135.557 78.7227C135.811 78.8398 136.09 79.0449 136.396 79.3379L135.332 80.3633C135.169 80.1549 135.013 80.0182 134.863 79.9531C134.72 79.888 134.531 79.8555 134.297 79.8555C134.062 79.8555 133.854 79.9434 133.672 80.1191C133.496 80.2949 133.408 80.5228 133.408 80.8027V82.5215H135.312V83.8398H133.398ZM138.027 83.8398H136.641V82.5215H138.027V80.0801H139.502V82.5215H141.426V83.8398H139.502V90.9004C139.502 91.6621 139.883 92.043 140.645 92.043H141.328V93.2832H140.645C140 93.2832 139.486 93.2051 139.102 93.0488C138.724 92.8926 138.451 92.6452 138.281 92.3066C138.112 91.9616 138.027 91.5059 138.027 90.9395V83.8398ZM144.482 91.0273C144.73 91.0273 144.951 91.1022 145.146 91.252C145.342 91.4017 145.459 91.5579 145.498 91.7207C145.531 91.8835 145.547 92.0397 145.547 92.1895C145.547 92.3587 145.521 92.5671 145.469 92.8145C145.423 93.0618 145.365 93.2832 145.293 93.4785C145.228 93.6543 145.143 93.8431 145.039 94.0449C144.935 94.2467 144.84 94.4128 144.756 94.543C144.749 94.5495 144.668 94.6764 144.512 94.9238L144.346 95.1582L143.799 94.8555C144.268 94.1849 144.502 93.6055 144.502 93.1172C144.326 93.1172 144.157 93.0749 143.994 92.9902C143.831 92.9056 143.698 92.7884 143.594 92.6387C143.496 92.4824 143.447 92.3034 143.447 92.1016C143.447 91.8021 143.548 91.5482 143.75 91.3398C143.958 91.1315 144.202 91.0273 144.482 91.0273ZM159.18 84.582L156.963 93H155.82L153.027 82.5215H154.521L156.406 90.5586L158.447 82.5996H159.922L161.963 90.5586L163.848 82.5215H165.342L162.539 93H161.348L159.18 84.582ZM167.061 80.0117C167.061 79.7448 167.148 79.5202 167.324 79.3379C167.507 79.1556 167.718 79.0645 167.959 79.0645C168.206 79.0645 168.424 79.1491 168.613 79.3184C168.802 79.4876 168.896 79.6992 168.896 79.9531C168.896 80.2135 168.805 80.4382 168.623 80.627C168.447 80.8092 168.242 80.9004 168.008 80.9004C167.76 80.9004 167.539 80.819 167.344 80.6562C167.155 80.487 167.061 80.2721 167.061 80.0117ZM167.246 82.5215H168.721V93H167.246V82.5215ZM176.396 83.8691C176.077 83.6738 175.674 83.5762 175.186 83.5762C174.691 83.5762 174.245 83.7715 173.848 84.1621C173.099 84.8913 172.725 86.0794 172.725 87.7266V93H171.24V82.5215H172.725V84.2891C172.842 83.9049 173.044 83.5566 173.33 83.2441C173.617 82.9316 173.955 82.6875 174.346 82.5117C174.736 82.3294 175.14 82.2383 175.557 82.2383C176.188 82.2383 176.729 82.3555 177.178 82.5898L176.396 83.8691ZM185.303 88.4199H178.779C178.883 89.7806 179.297 90.7865 180.02 91.4375C180.404 91.7891 180.833 91.9648 181.309 91.9648C181.797 91.9648 182.269 91.8411 182.725 91.5938C183.18 91.3398 183.512 91.0176 183.721 90.627L185.02 91.1641C184.688 91.8086 184.18 92.3229 183.496 92.707C182.819 93.0911 182.077 93.2832 181.27 93.2832C180.475 93.2832 179.762 93.0358 179.131 92.541C178.499 92.0462 178.024 91.3822 177.705 90.5488C177.386 89.7285 177.227 88.7975 177.227 87.7559C177.227 86.7142 177.386 85.7897 177.705 84.9824C178.031 84.1686 178.503 83.5208 179.121 83.0391C179.753 82.5573 180.436 82.3164 181.172 82.3164C181.882 82.3164 182.497 82.4596 183.018 82.7461C183.538 83.026 183.965 83.4232 184.297 83.9375C184.961 84.9401 185.293 86.1217 185.293 87.4824L185.303 88.4199ZM183.877 87.1016C183.838 86.4701 183.708 85.8906 183.486 85.3633C183.265 84.8359 182.965 84.4193 182.588 84.1133C182.217 83.8008 181.797 83.6445 181.328 83.6445C180.833 83.6445 180.391 83.8203 180 84.1719C179.277 84.8294 178.87 85.806 178.779 87.1016H183.877ZM190.234 83.8398V93H188.75V83.8398H187.393V82.5215H188.74V81.2031C188.74 80.8255 188.831 80.4642 189.014 80.1191C189.202 79.7676 189.447 79.4779 189.746 79.25C190.358 78.7747 190.898 78.5371 191.367 78.5371C191.803 78.5371 192.145 78.599 192.393 78.7227C192.646 78.8398 192.926 79.0449 193.232 79.3379L192.168 80.3633C192.005 80.1549 191.849 80.0182 191.699 79.9531C191.556 79.888 191.367 79.8555 191.133 79.8555C190.898 79.8555 190.69 79.9434 190.508 80.1191C190.332 80.2949 190.244 80.5228 190.244 80.8027V82.5215H192.148V83.8398H190.234ZM199.58 83.8691C199.261 83.6738 198.857 83.5762 198.369 83.5762C197.874 83.5762 197.428 83.7715 197.031 84.1621C196.283 84.8913 195.908 86.0794 195.908 87.7266V93H194.424V82.5215H195.908V84.2891C196.025 83.9049 196.227 83.5566 196.514 83.2441C196.8 82.9316 197.139 82.6875 197.529 82.5117C197.92 82.3294 198.324 82.2383 198.74 82.2383C199.372 82.2383 199.912 82.3555 200.361 82.5898L199.58 83.8691ZM204.326 85.998C204.756 85.998 205.16 86.0794 205.537 86.2422C205.921 86.4049 206.237 86.6068 206.484 86.8477C206.738 87.0885 206.891 87.3197 206.943 87.541V86.6035C206.943 85.679 206.735 84.9629 206.318 84.4551C205.908 83.9408 205.322 83.6836 204.561 83.6836C204.118 83.6836 203.695 83.7552 203.291 83.8984C202.894 84.0352 202.585 84.2142 202.363 84.4355L201.602 83.4199C202.467 82.7103 203.451 82.3555 204.551 82.3555C205.28 82.3555 205.928 82.5247 206.494 82.8633C207.067 83.2018 207.513 83.6934 207.832 84.3379C208.158 84.9759 208.32 85.7311 208.32 86.6035V93H206.963V91.4766C206.924 91.6979 206.774 91.9518 206.514 92.2383C206.253 92.5247 205.924 92.7721 205.527 92.9805C205.137 93.1823 204.733 93.2832 204.316 93.2832C203.62 93.2832 202.995 93.1302 202.441 92.8242C201.895 92.5182 201.465 92.0918 201.152 91.5449C200.84 90.9915 200.684 90.3665 200.684 89.6699C200.684 88.9733 200.843 88.3451 201.162 87.7852C201.488 87.2253 201.927 86.7891 202.48 86.4766C203.04 86.1576 203.656 85.998 204.326 85.998ZM206.963 89.6211C206.963 89.1914 206.852 88.8008 206.631 88.4492C206.416 88.0977 206.123 87.821 205.752 87.6191C205.381 87.4173 204.977 87.3164 204.541 87.3164C204.105 87.3164 203.708 87.4206 203.35 87.6289C202.992 87.8372 202.708 88.1204 202.5 88.4785C202.292 88.8366 202.188 89.2305 202.188 89.6602C202.188 90.0898 202.292 90.4805 202.5 90.832C202.715 91.1836 203.005 91.4603 203.369 91.6621C203.74 91.8639 204.144 91.9648 204.58 91.9648C205.016 91.9648 205.417 91.8607 205.781 91.6523C206.146 91.444 206.432 91.1608 206.641 90.8027C206.855 90.4447 206.963 90.0508 206.963 89.6211ZM217.91 93H216.426V87.6582C216.426 86.1217 216.243 85.0378 215.879 84.4062C215.566 83.8529 215.088 83.5762 214.443 83.5762C213.024 83.5762 212.314 84.9271 212.314 87.6289V93H210.83V82.5215H212.314V84.2988C212.581 83.7389 212.832 83.3158 213.066 83.0293C213.307 82.7363 213.577 82.5312 213.877 82.4141C214.176 82.2969 214.554 82.2383 215.01 82.2383C215.654 82.2383 216.221 82.4596 216.709 82.9023C217.197 83.3385 217.533 83.9049 217.715 84.6016C217.891 83.8984 218.226 83.3288 218.721 82.8926C219.215 82.4564 219.808 82.2383 220.498 82.2383C221.507 82.2383 222.259 82.6191 222.754 83.3809C223.255 84.1361 223.506 85.2168 223.506 86.623V93H222.031V87.6973C222.031 86.3626 221.921 85.4219 221.699 84.875C221.478 84.3216 221.185 83.9603 220.82 83.791C220.605 83.6934 220.358 83.6445 220.078 83.6445C218.633 83.6445 217.91 84.9759 217.91 87.6387V93ZM225.83 80.0117C225.83 79.7448 225.918 79.5202 226.094 79.3379C226.276 79.1556 226.488 79.0645 226.729 79.0645C226.976 79.0645 227.194 79.1491 227.383 79.3184C227.572 79.4876 227.666 79.6992 227.666 79.9531C227.666 80.2135 227.575 80.4382 227.393 80.627C227.217 80.8092 227.012 80.9004 226.777 80.9004C226.53 80.9004 226.309 80.819 226.113 80.6562C225.924 80.487 225.83 80.2721 225.83 80.0117ZM226.016 82.5215H227.49V93H226.016V82.5215ZM231.494 93H230.01V82.5215H231.494V84.2891C231.618 83.8984 231.82 83.5501 232.1 83.2441C232.386 82.9316 232.731 82.6875 233.135 82.5117C233.545 82.3294 233.991 82.2383 234.473 82.2383C235.215 82.2383 235.856 82.4434 236.396 82.8535C236.937 83.2572 237.354 83.8691 237.646 84.6895C237.939 85.5033 238.086 86.5124 238.086 87.7168V93H236.611V87.7168C236.611 85.7702 236.156 84.4974 235.244 83.8984C234.912 83.6836 234.492 83.5762 233.984 83.5762C233.47 83.5762 233.014 83.7715 232.617 84.1621C231.868 84.8913 231.494 86.0794 231.494 87.7266V93ZM243.711 82.2383C245.065 82.2383 246.038 82.9414 246.631 84.3477V82.5215H248.115V93.1758C248.115 93.8073 248.005 94.3932 247.783 94.9336C247.562 95.474 247.259 95.9232 246.875 96.2812C246.081 97.0169 245.173 97.3848 244.15 97.3848C243.571 97.3848 243.024 97.2806 242.51 97.0723C241.995 96.8639 241.569 96.5872 241.23 96.2422C240.566 95.5716 240.186 94.8457 240.088 94.0645H241.484C241.543 94.4355 241.699 94.7708 241.953 95.0703C242.214 95.3763 242.533 95.6172 242.91 95.793C243.294 95.9688 243.698 96.0566 244.121 96.0566C244.557 96.0566 244.967 95.946 245.352 95.7246C245.736 95.5098 246.045 95.194 246.279 94.7773C246.514 94.3672 246.631 93.8822 246.631 93.3223V91.2031C246.182 92.2122 245.579 92.8503 244.824 93.1172C244.492 93.2279 244.095 93.2832 243.633 93.2832C243.164 93.2832 242.708 93.179 242.266 92.9707C241.829 92.7624 241.465 92.4824 241.172 92.1309C240.885 91.7858 240.638 91.3724 240.43 90.8906C240.046 89.9727 239.854 89.0352 239.854 88.0781C239.854 87.1471 239.925 86.3594 240.068 85.7148C240.218 85.0703 240.446 84.4746 240.752 83.9277C241.058 83.3939 241.465 82.9805 241.973 82.6875C242.48 82.388 243.06 82.2383 243.711 82.2383ZM242.109 84.6699C241.608 85.4186 241.357 86.4408 241.357 87.7363C241.357 88.5892 241.471 89.3346 241.699 89.9727C241.927 90.6107 242.24 91.1022 242.637 91.4473C243.04 91.7923 243.493 91.9648 243.994 91.9648C244.495 91.9648 244.951 91.7923 245.361 91.4473C245.771 91.1022 246.094 90.6107 246.328 89.9727C246.562 89.3281 246.68 88.5859 246.68 87.7461C246.68 86.9062 246.559 86.1706 246.318 85.5391C246.084 84.9076 245.762 84.4225 245.352 84.084C244.948 83.7389 244.492 83.5664 243.984 83.5664C243.236 83.5664 242.611 83.9342 242.109 84.6699ZM251.162 91.0273C251.41 91.0273 251.631 91.1022 251.826 91.252C252.021 91.4017 252.139 91.5579 252.178 91.7207C252.21 91.8835 252.227 92.0397 252.227 92.1895C252.227 92.3587 252.201 92.5671 252.148 92.8145C252.103 93.0618 252.044 93.2832 251.973 93.4785C251.908 93.6543 251.823 93.8431 251.719 94.0449C251.615 94.2467 251.52 94.4128 251.436 94.543C251.429 94.5495 251.348 94.6764 251.191 94.9238L251.025 95.1582L250.479 94.8555C250.947 94.1849 251.182 93.6055 251.182 93.1172C251.006 93.1172 250.837 93.0749 250.674 92.9902C250.511 92.9056 250.378 92.7884 250.273 92.6387C250.176 92.4824 250.127 92.3034 250.127 92.1016C250.127 91.8021 250.228 91.5482 250.43 91.3398C250.638 91.1315 250.882 91.0273 251.162 91.0273ZM261.787 84.3477C262.386 82.9414 263.359 82.2383 264.707 82.2383C265.358 82.2383 265.938 82.388 266.445 82.6875C266.96 82.987 267.367 83.4036 267.666 83.9375C268.265 84.9857 268.564 86.252 268.564 87.7363C268.564 89.2077 268.265 90.4772 267.666 91.5449C267.373 92.0723 266.969 92.4954 266.455 92.8145C265.947 93.127 265.423 93.2832 264.883 93.2832C264.368 93.2832 263.945 93.2279 263.613 93.1172C263.288 93.013 263.005 92.8503 262.764 92.6289C262.373 92.2708 262.048 91.7956 261.787 91.2031V97.1797H260.303V82.5215H261.787V84.3477ZM266.309 90.8223C266.81 90.0671 267.061 89.0384 267.061 87.7363C267.061 86.8835 266.947 86.1445 266.719 85.5195C266.497 84.888 266.188 84.4062 265.791 84.0742C265.394 83.7357 264.941 83.5664 264.434 83.5664C263.926 83.5664 263.467 83.7389 263.057 84.084C262.653 84.4225 262.331 84.9076 262.09 85.5391C261.855 86.1706 261.738 86.9062 261.738 87.7461C261.738 88.5859 261.855 89.3281 262.09 89.9727C262.331 90.6107 262.656 91.1022 263.066 91.4473C263.477 91.7923 263.932 91.9648 264.434 91.9648C265.189 91.9648 265.814 91.584 266.309 90.8223ZM275.654 83.8691C275.335 83.6738 274.932 83.5762 274.443 83.5762C273.949 83.5762 273.503 83.7715 273.105 84.1621C272.357 84.8913 271.982 86.0794 271.982 87.7266V93H270.498V82.5215H271.982V84.2891C272.1 83.9049 272.301 83.5566 272.588 83.2441C272.874 82.9316 273.213 82.6875 273.604 82.5117C273.994 82.3294 274.398 82.2383 274.814 82.2383C275.446 82.2383 275.986 82.3555 276.436 82.5898L275.654 83.8691ZM278.867 92.5312C278.236 92.043 277.754 91.3952 277.422 90.5879C277.096 89.7741 276.934 88.8952 276.934 87.9512C276.934 87.0658 277.021 86.2943 277.197 85.6367C277.38 84.9727 277.65 84.3867 278.008 83.8789C278.75 82.8372 279.814 82.3164 281.201 82.3164C282.1 82.3164 282.878 82.5605 283.535 83.0488C284.818 84.0059 285.459 85.5749 285.459 87.7559C285.459 89.9694 284.824 91.5612 283.555 92.5312C282.897 93.0326 282.116 93.2832 281.211 93.2832C280.306 93.2832 279.525 93.0326 278.867 92.5312ZM279.609 84.2109C279.206 84.5755 278.91 85.0508 278.721 85.6367C278.532 86.2161 278.438 86.8704 278.438 87.5996C278.438 88.2832 278.49 88.8757 278.594 89.377C278.698 89.8717 278.857 90.3177 279.072 90.7148C279.535 91.5482 280.244 91.9648 281.201 91.9648C282.575 91.9648 283.441 91.1022 283.799 89.377C283.903 88.8952 283.955 88.3027 283.955 87.5996C283.955 86.8704 283.861 86.2161 283.672 85.6367C283.483 85.0508 283.187 84.5755 282.783 84.2109C282.367 83.8333 281.839 83.6445 281.201 83.6445C280.557 83.6445 280.026 83.8333 279.609 84.2109ZM288.613 83.8398H287.227V82.5215H288.613V80.0801H290.088V82.5215H292.012V83.8398H290.088V90.9004C290.088 91.6621 290.469 92.043 291.23 92.043H291.914V93.2832H291.23C290.586 93.2832 290.072 93.2051 289.688 93.0488C289.31 92.8926 289.036 92.6452 288.867 92.3066C288.698 91.9616 288.613 91.5059 288.613 90.9395V83.8398ZM295.957 92.5312C295.326 92.043 294.844 91.3952 294.512 90.5879C294.186 89.7741 294.023 88.8952 294.023 87.9512C294.023 87.0658 294.111 86.2943 294.287 85.6367C294.469 84.9727 294.74 84.3867 295.098 83.8789C295.84 82.8372 296.904 82.3164 298.291 82.3164C299.189 82.3164 299.967 82.5605 300.625 83.0488C301.908 84.0059 302.549 85.5749 302.549 87.7559C302.549 89.9694 301.914 91.5612 300.645 92.5312C299.987 93.0326 299.206 93.2832 298.301 93.2832C297.396 93.2832 296.615 93.0326 295.957 92.5312ZM296.699 84.2109C296.296 84.5755 295.999 85.0508 295.811 85.6367C295.622 86.2161 295.527 86.8704 295.527 87.5996C295.527 88.2832 295.579 88.8757 295.684 89.377C295.788 89.8717 295.947 90.3177 296.162 90.7148C296.624 91.5482 297.334 91.9648 298.291 91.9648C299.665 91.9648 300.531 91.1022 300.889 89.377C300.993 88.8952 301.045 88.3027 301.045 87.5996C301.045 86.8704 300.951 86.2161 300.762 85.6367C300.573 85.0508 300.277 84.5755 299.873 84.2109C299.456 83.8333 298.929 83.6445 298.291 83.6445C297.646 83.6445 297.116 83.8333 296.699 84.2109ZM305.703 83.8398H304.316V82.5215H305.703V80.0801H307.178V82.5215H309.102V83.8398H307.178V90.9004C307.178 91.6621 307.559 92.043 308.32 92.043H309.004V93.2832H308.32C307.676 93.2832 307.161 93.2051 306.777 93.0488C306.4 92.8926 306.126 92.6452 305.957 92.3066C305.788 91.9616 305.703 91.5059 305.703 90.9395V83.8398ZM319.365 93.1758C319.365 93.8008 319.245 94.3835 319.004 94.9238C318.763 95.4707 318.438 95.9232 318.027 96.2812C317.174 97.0169 316.23 97.3848 315.195 97.3848C313.809 97.3848 312.627 96.8184 311.65 95.6855L312.686 94.8555C313.363 95.6562 314.199 96.0566 315.195 96.0566C315.645 96.0566 316.074 95.9525 316.484 95.7441C316.895 95.5358 317.23 95.2233 317.49 94.8066C317.751 94.3965 317.881 93.9017 317.881 93.3223V91.2324C317.757 91.623 317.552 91.9746 317.266 92.2871C316.986 92.5931 316.641 92.834 316.23 93.0098C315.827 93.1921 315.384 93.2832 314.902 93.2832C314.16 93.2832 313.519 93.0814 312.979 92.6777C312.438 92.2676 312.021 91.6556 311.729 90.8418C311.436 90.0215 311.289 89.0091 311.289 87.8047V82.5215H312.764V87.8047C312.764 89.7513 313.219 91.0241 314.131 91.623C314.463 91.8379 314.886 91.9453 315.4 91.9453C315.908 91.9453 316.361 91.75 316.758 91.3594C317.507 90.6302 317.881 89.4421 317.881 87.7949V82.5215H319.365V93.1758ZM323.252 84.3477C323.851 82.9414 324.824 82.2383 326.172 82.2383C326.823 82.2383 327.402 82.388 327.91 82.6875C328.424 82.987 328.831 83.4036 329.131 83.9375C329.73 84.9857 330.029 86.252 330.029 87.7363C330.029 89.2077 329.73 90.4772 329.131 91.5449C328.838 92.0723 328.434 92.4954 327.92 92.8145C327.412 93.127 326.888 93.2832 326.348 93.2832C325.833 93.2832 325.41 93.2279 325.078 93.1172C324.753 93.013 324.469 92.8503 324.229 92.6289C323.838 92.2708 323.512 91.7956 323.252 91.2031V97.1797H321.768V82.5215H323.252V84.3477ZM327.773 90.8223C328.275 90.0671 328.525 89.0384 328.525 87.7363C328.525 86.8835 328.411 86.1445 328.184 85.5195C327.962 84.888 327.653 84.4062 327.256 84.0742C326.859 83.7357 326.406 83.5664 325.898 83.5664C325.391 83.5664 324.932 83.7389 324.521 84.084C324.118 84.4225 323.796 84.9076 323.555 85.5391C323.32 86.1706 323.203 86.9062 323.203 87.7461C323.203 88.5859 323.32 89.3281 323.555 89.9727C323.796 90.6107 324.121 91.1022 324.531 91.4473C324.941 91.7923 325.397 91.9648 325.898 91.9648C326.654 91.9648 327.279 91.584 327.773 90.8223ZM331.982 80.0117C331.982 79.7448 332.07 79.5202 332.246 79.3379C332.428 79.1556 332.64 79.0645 332.881 79.0645C333.128 79.0645 333.346 79.1491 333.535 79.3184C333.724 79.4876 333.818 79.6992 333.818 79.9531C333.818 80.2135 333.727 80.4382 333.545 80.627C333.369 80.8092 333.164 80.9004 332.93 80.9004C332.682 80.9004 332.461 80.819 332.266 80.6562C332.077 80.487 331.982 80.2721 331.982 80.0117ZM332.168 82.5215H333.643V93H332.168V82.5215ZM337.646 93H336.162V82.5215H337.646V84.2891C337.77 83.8984 337.972 83.5501 338.252 83.2441C338.538 82.9316 338.883 82.6875 339.287 82.5117C339.697 82.3294 340.143 82.2383 340.625 82.2383C341.367 82.2383 342.008 82.4434 342.549 82.8535C343.089 83.2572 343.506 83.8691 343.799 84.6895C344.092 85.5033 344.238 86.5124 344.238 87.7168V93H342.764V87.7168C342.764 85.7702 342.308 84.4974 341.396 83.8984C341.064 83.6836 340.645 83.5762 340.137 83.5762C339.622 83.5762 339.167 83.7715 338.77 84.1621C338.021 84.8913 337.646 86.0794 337.646 87.7266V93ZM349.863 82.2383C351.217 82.2383 352.191 82.9414 352.783 84.3477V82.5215H354.268V93.1758C354.268 93.8073 354.157 94.3932 353.936 94.9336C353.714 95.474 353.411 95.9232 353.027 96.2812C352.233 97.0169 351.325 97.3848 350.303 97.3848C349.723 97.3848 349.176 97.2806 348.662 97.0723C348.148 96.8639 347.721 96.5872 347.383 96.2422C346.719 95.5716 346.338 94.8457 346.24 94.0645H347.637C347.695 94.4355 347.852 94.7708 348.105 95.0703C348.366 95.3763 348.685 95.6172 349.062 95.793C349.447 95.9688 349.85 96.0566 350.273 96.0566C350.71 96.0566 351.12 95.946 351.504 95.7246C351.888 95.5098 352.197 95.194 352.432 94.7773C352.666 94.3672 352.783 93.8822 352.783 93.3223V91.2031C352.334 92.2122 351.732 92.8503 350.977 93.1172C350.645 93.2279 350.247 93.2832 349.785 93.2832C349.316 93.2832 348.861 93.179 348.418 92.9707C347.982 92.7624 347.617 92.4824 347.324 92.1309C347.038 91.7858 346.79 91.3724 346.582 90.8906C346.198 89.9727 346.006 89.0352 346.006 88.0781C346.006 87.1471 346.077 86.3594 346.221 85.7148C346.37 85.0703 346.598 84.4746 346.904 83.9277C347.21 83.3939 347.617 82.9805 348.125 82.6875C348.633 82.388 349.212 82.2383 349.863 82.2383ZM348.262 84.6699C347.76 85.4186 347.51 86.4408 347.51 87.7363C347.51 88.5892 347.624 89.3346 347.852 89.9727C348.079 90.6107 348.392 91.1022 348.789 91.4473C349.193 91.7923 349.645 91.9648 350.146 91.9648C350.648 91.9648 351.104 91.7923 351.514 91.4473C351.924 91.1022 352.246 90.6107 352.48 89.9727C352.715 89.3281 352.832 88.5859 352.832 87.7461C352.832 86.9062 352.712 86.1706 352.471 85.5391C352.236 84.9076 351.914 84.4225 351.504 84.084C351.1 83.7389 350.645 83.5664 350.137 83.5664C349.388 83.5664 348.763 83.9342 348.262 84.6699Z" fill="black"/>
<defs>
<filter id="filter0_d_70_98" x="0" y="0" width="402" height="146" filterUnits="userSpaceOnUse" color-interpolation-filters="sRGB">
<feFlood flood-opacity="0" result="BackgroundImageFix"/>
<feColorMatrix in="SourceAlpha" type="matrix" values="0 0 0 0 0 0 0 0 0 0 0 0 0 0 0 0 0 0 127 0" result="hardAlpha"/>
<feMorphology radius="3" operator="dilate" in="SourceAlpha" result="effect1_dropShadow_70_98"/>
<feOffset dx="3" dy="3"/>
<feGaussianBlur stdDeviation="5"/>
<feComposite in2="hardAlpha" operator="out"/>
<feColorMatrix type="matrix" values="0 0 0 0 0.729412 0 0 0 0 0.85098 0 0 0 0 1 0 0 0 1 0"/>
<feBlend mode="normal" in2="BackgroundImageFix" result="effect1_dropShadow_70_98"/>
<feBlend mode="normal" in="SourceGraphic" in2="effect1_dropShadow_70_98" result="shape"/>
</filter>
</defs>
</svg>
