<svg width="466" height="146" viewBox="0 0 466 146" fill="none" xmlns="http://www.w3.org/2000/svg">
<g filter="url(#filter0_d_42_58)">
<rect x="10" y="10" width="440" height="120" rx="35" fill="white"/>
</g>
<path d="M42.0996 59.5039C42.1908 59.888 42.3926 60.2656 42.7051 60.6367C43.0241 61.0078 43.418 61.3105 43.8867 61.5449C44.3555 61.7793 44.8568 61.8965 45.3906 61.8965C45.9505 61.8965 46.4746 61.7891 46.9629 61.5742C47.4577 61.3594 47.8548 61.0599 48.1543 60.6758C48.4538 60.2917 48.6035 59.8587 48.6035 59.377C48.6035 58.1009 47.5521 57.043 45.4492 56.2031L44.7852 55.9395C44.2643 55.7441 43.8411 55.5651 43.5156 55.4023C42.8646 55.0833 42.4056 54.7806 42.1387 54.4941C41.9889 54.3444 41.8164 54.1263 41.6211 53.8398C41.2826 53.3451 41.1133 52.7005 41.1133 51.9062C41.1133 51.2096 41.2923 50.5977 41.6504 50.0703C42.015 49.5365 42.5098 49.1263 43.1348 48.8398C43.7598 48.5469 44.4564 48.4004 45.2246 48.4004C45.9733 48.4004 46.6536 48.5273 47.2656 48.7812C47.8776 49.0286 48.3919 49.3737 48.8086 49.8164C49.2253 50.2591 49.5247 50.7669 49.707 51.3398L48.2227 51.584C48.1185 51.265 47.9232 50.9688 47.6367 50.6953C47.3568 50.4154 47.0085 50.194 46.5918 50.0312C46.1751 49.862 45.7292 49.7773 45.2539 49.7773C44.7656 49.7773 44.3262 49.8717 43.9355 50.0605C43.5514 50.2428 43.2487 50.4967 43.0273 50.8223C42.806 51.1413 42.6953 51.5026 42.6953 51.9062C42.6953 52.4141 42.8288 52.8438 43.0957 53.1953C43.3626 53.5469 43.6882 53.8138 44.0723 53.9961C44.3978 54.1589 44.6517 54.2793 44.834 54.3574C45.0163 54.4355 45.2669 54.5365 45.5859 54.6602C46.2695 54.9206 46.7936 55.1452 47.1582 55.334C47.9004 55.7116 48.4505 56.0794 48.8086 56.4375C49.0495 56.6784 49.2676 56.9388 49.4629 57.2188C49.8861 57.8112 50.0977 58.5339 50.0977 59.3867C50.0977 60.2461 49.8763 60.9753 49.4336 61.5742C48.5742 62.7135 47.1842 63.2832 45.2637 63.2832C44.0592 63.2832 43.0501 62.9772 42.2363 62.3652C41.429 61.7467 40.8301 60.8939 40.4395 59.8066L42.0996 59.5039ZM55.2246 56.9844L59.7266 63H58.0273L54.3262 58L53.291 59.2988V63H51.8066V48.8008H53.291V57.3164L57.2852 52.5215H58.9844L55.2246 56.9844ZM61.0449 50.0117C61.0449 49.7448 61.1328 49.5202 61.3086 49.3379C61.4909 49.1556 61.7025 49.0645 61.9434 49.0645C62.1908 49.0645 62.4089 49.1491 62.5977 49.3184C62.7865 49.4876 62.8809 49.6992 62.8809 49.9531C62.8809 50.2135 62.7897 50.4382 62.6074 50.627C62.4316 50.8092 62.2266 50.9004 61.9922 50.9004C61.7448 50.9004 61.5234 50.819 61.3281 50.6562C61.1393 50.487 61.0449 50.2721 61.0449 50.0117ZM61.2305 52.5215H62.7051V63H61.2305V52.5215ZM66.9043 60.9785C66.9043 61.6621 67.2917 62.0039 68.0664 62.0039V63.2832C67.2331 63.2832 66.5853 63.1237 66.123 62.8047C65.6608 62.4792 65.4297 61.8835 65.4297 61.0176V48.8008H66.9043V60.9785ZM71.1035 60.9785C71.1035 61.6621 71.4909 62.0039 72.2656 62.0039V63.2832C71.4323 63.2832 70.7845 63.1237 70.3223 62.8047C69.86 62.4792 69.6289 61.8835 69.6289 61.0176V48.8008H71.1035V60.9785ZM77.0801 58.3809C76.5462 58.2051 76.1523 58.0684 75.8984 57.9707C75.651 57.8665 75.3743 57.7266 75.0684 57.5508C74.7493 57.375 74.4824 57.1732 74.2676 56.9453C73.7858 56.444 73.5449 55.7865 73.5449 54.9727C73.5449 54.4453 73.6914 53.9798 73.9844 53.5762C74.2839 53.1725 74.6908 52.86 75.2051 52.6387C75.7194 52.4108 76.2988 52.2904 76.9434 52.2773C78.3431 52.2773 79.3783 52.7786 80.0488 53.7812C80.2051 54.0156 80.3223 54.2533 80.4004 54.4941L78.9746 54.7871C78.623 53.9928 77.9525 53.5957 76.9629 53.5957C76.416 53.5957 75.957 53.7292 75.5859 53.9961C75.2214 54.2565 75.0391 54.6113 75.0391 55.0605C75.0391 55.2884 75.0684 55.4674 75.127 55.5977C75.1855 55.7279 75.2409 55.8288 75.293 55.9004C75.3516 55.9655 75.3874 56.0078 75.4004 56.0273C75.446 56.1055 75.5273 56.1803 75.6445 56.252C75.7487 56.3301 75.8366 56.3887 75.9082 56.4277C75.9668 56.4733 76.0645 56.5221 76.2012 56.5742L76.4648 56.6914C76.5885 56.7435 76.7122 56.7891 76.8359 56.8281L77.3926 57.0234L77.8613 57.1992C78.0046 57.2513 78.1706 57.3197 78.3594 57.4043C78.5547 57.4824 78.7109 57.5508 78.8281 57.6094C79.2188 57.8242 79.5085 58.0195 79.6973 58.1953C79.9902 58.4753 80.2018 58.7552 80.332 59.0352C80.4883 59.3932 80.5664 59.7806 80.5664 60.1973C80.5664 60.7832 80.4036 61.3105 80.0781 61.7793C79.7591 62.248 79.3262 62.6159 78.7793 62.8828C78.2324 63.1497 77.6335 63.2832 76.9824 63.2832C76.0254 63.2832 75.2376 63.0716 74.6191 62.6484C74.0007 62.2253 73.5612 61.6361 73.3008 60.8809L74.7363 60.6074C74.9447 61.0632 75.2214 61.4049 75.5664 61.6328C75.9115 61.8542 76.3867 61.9648 76.9922 61.9648C77.6237 61.9648 78.125 61.8086 78.4961 61.4961C78.8737 61.1771 79.0625 60.7441 79.0625 60.1973C79.0625 59.7285 78.8802 59.3574 78.5156 59.084C78.1576 58.8105 77.679 58.5762 77.0801 58.3809ZM82.6855 63H81.1426L88.1445 47.9219H89.6875L82.6855 63ZM90.1172 48.7812H100.781V50.1582H96.3184V63H94.7754V50.1582H90.1172V48.7812ZM104.336 62.5312C103.704 62.043 103.223 61.3952 102.891 60.5879C102.565 59.7741 102.402 58.8952 102.402 57.9512C102.402 57.0658 102.49 56.2943 102.666 55.6367C102.848 54.9727 103.118 54.3867 103.477 53.8789C104.219 52.8372 105.283 52.3164 106.67 52.3164C107.568 52.3164 108.346 52.5605 109.004 53.0488C110.286 54.0059 110.928 55.5749 110.928 57.7559C110.928 59.9694 110.293 61.5612 109.023 62.5312C108.366 63.0326 107.585 63.2832 106.68 63.2832C105.775 63.2832 104.993 63.0326 104.336 62.5312ZM105.078 54.2109C104.674 54.5755 104.378 55.0508 104.189 55.6367C104.001 56.2161 103.906 56.8704 103.906 57.5996C103.906 58.2832 103.958 58.8757 104.062 59.377C104.167 59.8717 104.326 60.3177 104.541 60.7148C105.003 61.5482 105.713 61.9648 106.67 61.9648C108.044 61.9648 108.91 61.1022 109.268 59.377C109.372 58.8952 109.424 58.3027 109.424 57.5996C109.424 56.8704 109.329 56.2161 109.141 55.6367C108.952 55.0508 108.656 54.5755 108.252 54.2109C107.835 53.8333 107.308 53.6445 106.67 53.6445C106.025 53.6445 105.495 53.8333 105.078 54.2109ZM114.629 62.5312C113.997 62.043 113.516 61.3952 113.184 60.5879C112.858 59.7741 112.695 58.8952 112.695 57.9512C112.695 57.0658 112.783 56.2943 112.959 55.6367C113.141 54.9727 113.411 54.3867 113.77 53.8789C114.512 52.8372 115.576 52.3164 116.963 52.3164C117.861 52.3164 118.639 52.5605 119.297 53.0488C120.579 54.0059 121.221 55.5749 121.221 57.7559C121.221 59.9694 120.586 61.5612 119.316 62.5312C118.659 63.0326 117.878 63.2832 116.973 63.2832C116.068 63.2832 115.286 63.0326 114.629 62.5312ZM115.371 54.2109C114.967 54.5755 114.671 55.0508 114.482 55.6367C114.294 56.2161 114.199 56.8704 114.199 57.5996C114.199 58.2832 114.251 58.8757 114.355 59.377C114.46 59.8717 114.619 60.3177 114.834 60.7148C115.296 61.5482 116.006 61.9648 116.963 61.9648C118.337 61.9648 119.202 61.1022 119.561 59.377C119.665 58.8952 119.717 58.3027 119.717 57.5996C119.717 56.8704 119.622 56.2161 119.434 55.6367C119.245 55.0508 118.949 54.5755 118.545 54.2109C118.128 53.8333 117.601 53.6445 116.963 53.6445C116.318 53.6445 115.788 53.8333 115.371 54.2109ZM124.932 60.9785C124.932 61.6621 125.319 62.0039 126.094 62.0039V63.2832C125.26 63.2832 124.613 63.1237 124.15 62.8047C123.688 62.4792 123.457 61.8835 123.457 61.0176V48.8008H124.932V60.9785ZM130.908 58.3809C130.374 58.2051 129.98 58.0684 129.727 57.9707C129.479 57.8665 129.202 57.7266 128.896 57.5508C128.577 57.375 128.311 57.1732 128.096 56.9453C127.614 56.444 127.373 55.7865 127.373 54.9727C127.373 54.4453 127.52 53.9798 127.812 53.5762C128.112 53.1725 128.519 52.86 129.033 52.6387C129.548 52.4108 130.127 52.2904 130.771 52.2773C132.171 52.2773 133.206 52.7786 133.877 53.7812C134.033 54.0156 134.15 54.2533 134.229 54.4941L132.803 54.7871C132.451 53.9928 131.781 53.5957 130.791 53.5957C130.244 53.5957 129.785 53.7292 129.414 53.9961C129.049 54.2565 128.867 54.6113 128.867 55.0605C128.867 55.2884 128.896 55.4674 128.955 55.5977C129.014 55.7279 129.069 55.8288 129.121 55.9004C129.18 55.9655 129.215 56.0078 129.229 56.0273C129.274 56.1055 129.355 56.1803 129.473 56.252C129.577 56.3301 129.665 56.3887 129.736 56.4277C129.795 56.4733 129.893 56.5221 130.029 56.5742L130.293 56.6914C130.417 56.7435 130.54 56.7891 130.664 56.8281L131.221 57.0234L131.689 57.1992C131.833 57.2513 131.999 57.3197 132.188 57.4043C132.383 57.4824 132.539 57.5508 132.656 57.6094C133.047 57.8242 133.337 58.0195 133.525 58.1953C133.818 58.4753 134.03 58.7552 134.16 59.0352C134.316 59.3932 134.395 59.7806 134.395 60.1973C134.395 60.7832 134.232 61.3105 133.906 61.7793C133.587 62.248 133.154 62.6159 132.607 62.8828C132.061 63.1497 131.462 63.2832 130.811 63.2832C129.854 63.2832 129.066 63.0716 128.447 62.6484C127.829 62.2253 127.389 61.6361 127.129 60.8809L128.564 60.6074C128.773 61.0632 129.049 61.4049 129.395 61.6328C129.74 61.8542 130.215 61.9648 130.82 61.9648C131.452 61.9648 131.953 61.8086 132.324 61.4961C132.702 61.1771 132.891 60.7441 132.891 60.1973C132.891 59.7285 132.708 59.3574 132.344 59.084C131.986 58.8105 131.507 58.5762 130.908 58.3809ZM136.299 54.9824C136.299 54.6829 136.4 54.429 136.602 54.2207C136.81 54.0124 137.054 53.9082 137.334 53.9082C137.614 53.9082 137.861 54.0059 138.076 54.2012C138.291 54.39 138.398 54.6309 138.398 54.9238C138.398 55.2298 138.298 55.487 138.096 55.6953C137.894 55.9036 137.656 56.0078 137.383 56.0078C137.096 56.0078 136.842 55.9134 136.621 55.7246C136.406 55.5293 136.299 55.2819 136.299 54.9824ZM136.299 62.1016C136.299 61.8021 136.4 61.5482 136.602 61.3398C136.81 61.1315 137.054 61.0273 137.334 61.0273C137.614 61.0273 137.861 61.125 138.076 61.3203C138.291 61.5091 138.398 61.75 138.398 62.043C138.398 62.349 138.298 62.6061 138.096 62.8145C137.894 63.0228 137.656 63.127 137.383 63.127C137.096 63.127 136.842 63.0326 136.621 62.8438C136.406 62.6484 136.299 62.401 136.299 62.1016ZM41.1816 78.7812H50.1758V80.1582H42.7246V85.0215H49.7559V86.3984H42.7246V93H41.1816V78.7812ZM52.4707 80.0117C52.4707 79.7448 52.5586 79.5202 52.7344 79.3379C52.9167 79.1556 53.1283 79.0645 53.3691 79.0645C53.6165 79.0645 53.8346 79.1491 54.0234 79.3184C54.2122 79.4876 54.3066 79.6992 54.3066 79.9531C54.3066 80.2135 54.2155 80.4382 54.0332 80.627C53.8574 80.8092 53.6523 80.9004 53.418 80.9004C53.1706 80.9004 52.9492 80.819 52.7539 80.6562C52.5651 80.487 52.4707 80.2721 52.4707 80.0117ZM52.6562 82.5215H54.1309V93H52.6562V82.5215ZM59.9609 82.2383C61.3151 82.2383 62.2884 82.9414 62.8809 84.3477V82.5215H64.3652V93.1758C64.3652 93.8073 64.2546 94.3932 64.0332 94.9336C63.8118 95.474 63.5091 95.9232 63.125 96.2812C62.3307 97.0169 61.4225 97.3848 60.4004 97.3848C59.821 97.3848 59.2741 97.2806 58.7598 97.0723C58.2454 96.8639 57.819 96.5872 57.4805 96.2422C56.8164 95.5716 56.4355 94.8457 56.3379 94.0645H57.7344C57.793 94.4355 57.9492 94.7708 58.2031 95.0703C58.4635 95.3763 58.7826 95.6172 59.1602 95.793C59.5443 95.9688 59.9479 96.0566 60.3711 96.0566C60.8073 96.0566 61.2174 95.946 61.6016 95.7246C61.9857 95.5098 62.2949 95.194 62.5293 94.7773C62.7637 94.3672 62.8809 93.8822 62.8809 93.3223V91.2031C62.4316 92.2122 61.8294 92.8503 61.0742 93.1172C60.7422 93.2279 60.3451 93.2832 59.8828 93.2832C59.4141 93.2832 58.9583 93.179 58.5156 92.9707C58.0794 92.7624 57.7148 92.4824 57.4219 92.1309C57.1354 91.7858 56.888 91.3724 56.6797 90.8906C56.2956 89.9727 56.1035 89.0352 56.1035 88.0781C56.1035 87.1471 56.1751 86.3594 56.3184 85.7148C56.4681 85.0703 56.696 84.4746 57.002 83.9277C57.3079 83.3939 57.7148 82.9805 58.2227 82.6875C58.7305 82.388 59.3099 82.2383 59.9609 82.2383ZM58.3594 84.6699C57.8581 85.4186 57.6074 86.4408 57.6074 87.7363C57.6074 88.5892 57.7214 89.3346 57.9492 89.9727C58.1771 90.6107 58.4896 91.1022 58.8867 91.4473C59.2904 91.7923 59.7428 91.9648 60.2441 91.9648C60.7454 91.9648 61.2012 91.7923 61.6113 91.4473C62.0215 91.1022 62.3438 90.6107 62.5781 89.9727C62.8125 89.3281 62.9297 88.5859 62.9297 87.7461C62.9297 86.9062 62.8092 86.1706 62.5684 85.5391C62.334 84.9076 62.0117 84.4225 61.6016 84.084C61.1979 83.7389 60.7422 83.5664 60.2344 83.5664C59.4857 83.5664 58.8607 83.9342 58.3594 84.6699ZM73.7109 93H72.2266V87.6582C72.2266 86.1217 72.0443 85.0378 71.6797 84.4062C71.3672 83.8529 70.8887 83.5762 70.2441 83.5762C68.8249 83.5762 68.1152 84.9271 68.1152 87.6289V93H66.6309V82.5215H68.1152V84.2988C68.3822 83.7389 68.6328 83.3158 68.8672 83.0293C69.1081 82.7363 69.3783 82.5312 69.6777 82.4141C69.9772 82.2969 70.3548 82.2383 70.8105 82.2383C71.4551 82.2383 72.0215 82.4596 72.5098 82.9023C72.998 83.3385 73.3333 83.9049 73.5156 84.6016C73.6914 83.8984 74.0267 83.3288 74.5215 82.8926C75.0163 82.4564 75.6087 82.2383 76.2988 82.2383C77.3079 82.2383 78.0599 82.6191 78.5547 83.3809C79.056 84.1361 79.3066 85.2168 79.3066 86.623V93H77.832V87.6973C77.832 86.3626 77.7214 85.4219 77.5 84.875C77.2786 84.3216 76.9857 83.9603 76.6211 83.791C76.4062 83.6934 76.1589 83.6445 75.8789 83.6445C74.4336 83.6445 73.7109 84.9759 73.7109 87.6387V93ZM84.8145 85.998C85.2441 85.998 85.6478 86.0794 86.0254 86.2422C86.4095 86.4049 86.7253 86.6068 86.9727 86.8477C87.2266 87.0885 87.3796 87.3197 87.4316 87.541V86.6035C87.4316 85.679 87.2233 84.9629 86.8066 84.4551C86.3965 83.9408 85.8105 83.6836 85.0488 83.6836C84.6061 83.6836 84.1829 83.7552 83.7793 83.8984C83.3822 84.0352 83.0729 84.2142 82.8516 84.4355L82.0898 83.4199C82.9557 82.7103 83.9388 82.3555 85.0391 82.3555C85.7682 82.3555 86.416 82.5247 86.9824 82.8633C87.5553 83.2018 88.0013 83.6934 88.3203 84.3379C88.6458 84.9759 88.8086 85.7311 88.8086 86.6035V93H87.4512V91.4766C87.4121 91.6979 87.2624 91.9518 87.002 92.2383C86.7415 92.5247 86.4128 92.7721 86.0156 92.9805C85.625 93.1823 85.2214 93.2832 84.8047 93.2832C84.1081 93.2832 83.4831 93.1302 82.9297 92.8242C82.3828 92.5182 81.9531 92.0918 81.6406 91.5449C81.3281 90.9915 81.1719 90.3665 81.1719 89.6699C81.1719 88.9733 81.3314 88.3451 81.6504 87.7852C81.9759 87.2253 82.4154 86.7891 82.9688 86.4766C83.5286 86.1576 84.1439 85.998 84.8145 85.998ZM87.4512 89.6211C87.4512 89.1914 87.3405 88.8008 87.1191 88.4492C86.9043 88.0977 86.6113 87.821 86.2402 87.6191C85.8691 87.4173 85.4655 87.3164 85.0293 87.3164C84.5931 87.3164 84.196 87.4206 83.8379 87.6289C83.4798 87.8372 83.1966 88.1204 82.9883 88.4785C82.7799 88.8366 82.6758 89.2305 82.6758 89.6602C82.6758 90.0898 82.7799 90.4805 82.9883 90.832C83.2031 91.1836 83.4928 91.4603 83.8574 91.6621C84.2285 91.8639 84.6322 91.9648 85.0684 91.9648C85.5046 91.9648 85.9049 91.8607 86.2695 91.6523C86.6341 91.444 86.9206 91.1608 87.1289 90.8027C87.3438 90.4447 87.4512 90.0508 87.4512 89.6211ZM92.0996 91.0273C92.347 91.0273 92.5684 91.1022 92.7637 91.252C92.959 91.4017 93.0762 91.5579 93.1152 91.7207C93.1478 91.8835 93.1641 92.0397 93.1641 92.1895C93.1641 92.3587 93.138 92.5671 93.0859 92.8145C93.0404 93.0618 92.9818 93.2832 92.9102 93.4785C92.8451 93.6543 92.7604 93.8431 92.6562 94.0449C92.5521 94.2467 92.4577 94.4128 92.373 94.543C92.3665 94.5495 92.2852 94.6764 92.1289 94.9238L91.9629 95.1582L91.416 94.8555C91.8848 94.1849 92.1191 93.6055 92.1191 93.1172C91.9434 93.1172 91.7741 93.0749 91.6113 92.9902C91.4486 92.9056 91.3151 92.7884 91.2109 92.6387C91.1133 92.4824 91.0645 92.3034 91.0645 92.1016C91.0645 91.8021 91.1654 91.5482 91.3672 91.3398C91.5755 91.1315 91.8197 91.0273 92.0996 91.0273ZM101.162 78.7812H102.705V85.041H109.16V78.7812H110.703V93H109.16V86.418H102.705V93H101.162V78.7812ZM112.539 78.7812H123.203V80.1582H118.74V93H117.197V80.1582H112.539V78.7812ZM125.01 93V78.7812H127.109L131.592 90.959L136.084 78.7812H138.105V93H136.611V81.2422L132.432 92.8438H130.684L126.504 81.2422V93H125.01ZM140.264 78.7812H141.807V91.623H149.277V93H140.264V78.7812ZM163.818 81.2812C163.551 80.7669 163.236 80.3926 162.871 80.1582C162.507 79.9173 162.021 79.7969 161.416 79.7969C160.999 79.7969 160.615 79.8945 160.264 80.0898C159.912 80.2786 159.632 80.5456 159.424 80.8906C159.222 81.2357 159.121 81.6296 159.121 82.0723C159.121 82.5085 159.229 82.9089 159.443 83.2734C159.665 83.6315 159.954 83.9147 160.312 84.123C160.671 84.3314 161.045 84.4355 161.436 84.4355H162.422V85.8223H161.475C160.85 85.8223 160.306 85.9395 159.844 86.1738C159.388 86.4017 159.036 86.737 158.789 87.1797C158.542 87.6224 158.418 88.1562 158.418 88.7812C158.418 89.3932 158.555 89.9368 158.828 90.4121C159.102 90.8809 159.466 91.2454 159.922 91.5059C160.378 91.7663 160.872 91.8965 161.406 91.8965C161.921 91.8965 162.393 91.7663 162.822 91.5059C163.252 91.2389 163.59 90.8841 163.838 90.4414C164.092 89.9987 164.219 89.5234 164.219 89.0156H162.314V87.6582H167.217V89.0352H165.84C165.84 89.7904 165.612 90.526 165.156 91.2422C164.284 92.6029 163.024 93.2832 161.377 93.2832C160.192 93.2832 159.147 92.8503 158.242 91.9844C157.826 91.5938 157.493 91.1185 157.246 90.5586C156.999 89.9987 156.875 89.4355 156.875 88.8691C156.875 88.3223 156.96 87.8177 157.129 87.3555C157.298 86.8867 157.523 86.4961 157.803 86.1836C158.343 85.5651 158.896 85.1908 159.463 85.0605C158.91 84.8197 158.457 84.4453 158.105 83.9375C157.754 83.4232 157.578 82.8307 157.578 82.1602C157.578 81.4635 157.731 80.8418 158.037 80.2949C158.35 79.748 158.805 79.2988 159.404 78.9473C159.997 78.5957 160.7 78.4199 161.514 78.4199C162.295 78.4199 163.008 78.625 163.652 79.0352C164.303 79.4388 164.798 79.9727 165.137 80.6367L163.818 81.2812ZM185.439 90.1387C185.094 91.0632 184.538 91.8184 183.77 92.4043C183.008 92.9902 182.044 93.2832 180.879 93.2832C179.479 93.2832 178.34 92.9154 177.461 92.1797C176.589 91.4375 175.964 90.5098 175.586 89.3965C175.208 88.2832 175.02 87.1243 175.02 85.9199C175.02 84.8392 175.163 83.8236 175.449 82.873C175.742 81.9225 176.169 81.0957 176.729 80.3926C177.288 79.6829 177.965 79.1589 178.76 78.8203C179.404 78.5404 180.049 78.4004 180.693 78.4004C181.813 78.4004 182.728 78.6185 183.438 79.0547C183.815 79.2891 184.173 79.5951 184.512 79.9727C184.85 80.3503 185.114 80.806 185.303 81.3398L183.848 81.7402C183.724 81.3496 183.516 81.0078 183.223 80.7148C182.93 80.4154 182.581 80.1842 182.178 80.0215C181.774 79.8587 181.348 79.7773 180.898 79.7773H180.879C180.215 79.7773 179.606 79.9499 179.053 80.2949C178.506 80.64 178.053 81.112 177.695 81.7109C176.992 82.9219 176.641 84.3249 176.641 85.9199C176.641 87.5345 177.012 88.9245 177.754 90.0898C178.118 90.6628 178.571 91.112 179.111 91.4375C179.658 91.7565 180.26 91.916 180.918 91.916C181.354 91.916 181.784 91.8184 182.207 91.623C182.63 91.4277 183.001 91.1641 183.32 90.832C183.639 90.5 183.867 90.1354 184.004 89.7383L185.439 90.1387ZM188.057 89.5039C188.148 89.888 188.35 90.2656 188.662 90.6367C188.981 91.0078 189.375 91.3105 189.844 91.5449C190.312 91.7793 190.814 91.8965 191.348 91.8965C191.908 91.8965 192.432 91.7891 192.92 91.5742C193.415 91.3594 193.812 91.0599 194.111 90.6758C194.411 90.2917 194.561 89.8587 194.561 89.377C194.561 88.1009 193.509 87.043 191.406 86.2031L190.742 85.9395C190.221 85.7441 189.798 85.5651 189.473 85.4023C188.822 85.0833 188.363 84.7806 188.096 84.4941C187.946 84.3444 187.773 84.1263 187.578 83.8398C187.24 83.3451 187.07 82.7005 187.07 81.9062C187.07 81.2096 187.249 80.5977 187.607 80.0703C187.972 79.5365 188.467 79.1263 189.092 78.8398C189.717 78.5469 190.413 78.4004 191.182 78.4004C191.93 78.4004 192.611 78.5273 193.223 78.7812C193.835 79.0286 194.349 79.3737 194.766 79.8164C195.182 80.2591 195.482 80.7669 195.664 81.3398L194.18 81.584C194.076 81.265 193.88 80.9688 193.594 80.6953C193.314 80.4154 192.965 80.194 192.549 80.0312C192.132 79.862 191.686 79.7773 191.211 79.7773C190.723 79.7773 190.283 79.8717 189.893 80.0605C189.508 80.2428 189.206 80.4967 188.984 80.8223C188.763 81.1413 188.652 81.5026 188.652 81.9062C188.652 82.4141 188.786 82.8438 189.053 83.1953C189.32 83.5469 189.645 83.8138 190.029 83.9961C190.355 84.1589 190.609 84.2793 190.791 84.3574C190.973 84.4355 191.224 84.5365 191.543 84.6602C192.227 84.9206 192.751 85.1452 193.115 85.334C193.857 85.7116 194.408 86.0794 194.766 86.4375C195.007 86.6784 195.225 86.9388 195.42 87.2188C195.843 87.8112 196.055 88.5339 196.055 89.3867C196.055 90.2461 195.833 90.9753 195.391 91.5742C194.531 92.7135 193.141 93.2832 191.221 93.2832C190.016 93.2832 189.007 92.9772 188.193 92.3652C187.386 91.7467 186.787 90.8939 186.396 89.8066L188.057 89.5039ZM198.604 89.5039C198.695 89.888 198.896 90.2656 199.209 90.6367C199.528 91.0078 199.922 91.3105 200.391 91.5449C200.859 91.7793 201.361 91.8965 201.895 91.8965C202.454 91.8965 202.979 91.7891 203.467 91.5742C203.962 91.3594 204.359 91.0599 204.658 90.6758C204.958 90.2917 205.107 89.8587 205.107 89.377C205.107 88.1009 204.056 87.043 201.953 86.2031L201.289 85.9395C200.768 85.7441 200.345 85.5651 200.02 85.4023C199.368 85.0833 198.91 84.7806 198.643 84.4941C198.493 84.3444 198.32 84.1263 198.125 83.8398C197.786 83.3451 197.617 82.7005 197.617 81.9062C197.617 81.2096 197.796 80.5977 198.154 80.0703C198.519 79.5365 199.014 79.1263 199.639 78.8398C200.264 78.5469 200.96 78.4004 201.729 78.4004C202.477 78.4004 203.158 78.5273 203.77 78.7812C204.382 79.0286 204.896 79.3737 205.312 79.8164C205.729 80.2591 206.029 80.7669 206.211 81.3398L204.727 81.584C204.622 81.265 204.427 80.9688 204.141 80.6953C203.861 80.4154 203.512 80.194 203.096 80.0312C202.679 79.862 202.233 79.7773 201.758 79.7773C201.27 79.7773 200.83 79.8717 200.439 80.0605C200.055 80.2428 199.753 80.4967 199.531 80.8223C199.31 81.1413 199.199 81.5026 199.199 81.9062C199.199 82.4141 199.333 82.8438 199.6 83.1953C199.867 83.5469 200.192 83.8138 200.576 83.9961C200.902 84.1589 201.156 84.2793 201.338 84.3574C201.52 84.4355 201.771 84.5365 202.09 84.6602C202.773 84.9206 203.298 85.1452 203.662 85.334C204.404 85.7116 204.954 86.0794 205.312 86.4375C205.553 86.6784 205.771 86.9388 205.967 87.2188C206.39 87.8112 206.602 88.5339 206.602 89.3867C206.602 90.2461 206.38 90.9753 205.938 91.5742C205.078 92.7135 203.688 93.2832 201.768 93.2832C200.563 93.2832 199.554 92.9772 198.74 92.3652C197.933 91.7467 197.334 90.8939 196.943 89.8066L198.604 89.5039ZM209.092 91.0273C209.339 91.0273 209.561 91.1022 209.756 91.252C209.951 91.4017 210.068 91.5579 210.107 91.7207C210.14 91.8835 210.156 92.0397 210.156 92.1895C210.156 92.3587 210.13 92.5671 210.078 92.8145C210.033 93.0618 209.974 93.2832 209.902 93.4785C209.837 93.6543 209.753 93.8431 209.648 94.0449C209.544 94.2467 209.45 94.4128 209.365 94.543C209.359 94.5495 209.277 94.6764 209.121 94.9238L208.955 95.1582L208.408 94.8555C208.877 94.1849 209.111 93.6055 209.111 93.1172C208.936 93.1172 208.766 93.0749 208.604 92.9902C208.441 92.9056 208.307 92.7884 208.203 92.6387C208.105 92.4824 208.057 92.3034 208.057 92.1016C208.057 91.8021 208.158 91.5482 208.359 91.3398C208.568 91.1315 208.812 91.0273 209.092 91.0273ZM223.789 84.582L221.572 93H220.43L217.637 82.5215H219.131L221.016 90.5586L223.057 82.5996H224.531L226.572 90.5586L228.457 82.5215H229.951L227.148 93H225.957L223.789 84.582ZM231.67 80.0117C231.67 79.7448 231.758 79.5202 231.934 79.3379C232.116 79.1556 232.327 79.0645 232.568 79.0645C232.816 79.0645 233.034 79.1491 233.223 79.3184C233.411 79.4876 233.506 79.6992 233.506 79.9531C233.506 80.2135 233.415 80.4382 233.232 80.627C233.057 80.8092 232.852 80.9004 232.617 80.9004C232.37 80.9004 232.148 80.819 231.953 80.6562C231.764 80.487 231.67 80.2721 231.67 80.0117ZM231.855 82.5215H233.33V93H231.855V82.5215ZM241.006 83.8691C240.687 83.6738 240.283 83.5762 239.795 83.5762C239.3 83.5762 238.854 83.7715 238.457 84.1621C237.708 84.8913 237.334 86.0794 237.334 87.7266V93H235.85V82.5215H237.334V84.2891C237.451 83.9049 237.653 83.5566 237.939 83.2441C238.226 82.9316 238.564 82.6875 238.955 82.5117C239.346 82.3294 239.749 82.2383 240.166 82.2383C240.798 82.2383 241.338 82.3555 241.787 82.5898L241.006 83.8691ZM249.912 88.4199H243.389C243.493 89.7806 243.906 90.7865 244.629 91.4375C245.013 91.7891 245.443 91.9648 245.918 91.9648C246.406 91.9648 246.878 91.8411 247.334 91.5938C247.79 91.3398 248.122 91.0176 248.33 90.627L249.629 91.1641C249.297 91.8086 248.789 92.3229 248.105 92.707C247.428 93.0911 246.686 93.2832 245.879 93.2832C245.085 93.2832 244.372 93.0358 243.74 92.541C243.109 92.0462 242.633 91.3822 242.314 90.5488C241.995 89.7285 241.836 88.7975 241.836 87.7559C241.836 86.7142 241.995 85.7897 242.314 84.9824C242.64 84.1686 243.112 83.5208 243.73 83.0391C244.362 82.5573 245.046 82.3164 245.781 82.3164C246.491 82.3164 247.106 82.4596 247.627 82.7461C248.148 83.026 248.574 83.4232 248.906 83.9375C249.57 84.9401 249.902 86.1217 249.902 87.4824L249.912 88.4199ZM248.486 87.1016C248.447 86.4701 248.317 85.8906 248.096 85.3633C247.874 84.8359 247.575 84.4193 247.197 84.1133C246.826 83.8008 246.406 83.6445 245.938 83.6445C245.443 83.6445 245 83.8203 244.609 84.1719C243.887 84.8294 243.48 85.806 243.389 87.1016H248.486ZM254.844 83.8398V93H253.359V83.8398H252.002V82.5215H253.35V81.2031C253.35 80.8255 253.441 80.4642 253.623 80.1191C253.812 79.7676 254.056 79.4779 254.355 79.25C254.967 78.7747 255.508 78.5371 255.977 78.5371C256.413 78.5371 256.755 78.599 257.002 78.7227C257.256 78.8398 257.536 79.0449 257.842 79.3379L256.777 80.3633C256.615 80.1549 256.458 80.0182 256.309 79.9531C256.165 79.888 255.977 79.8555 255.742 79.8555C255.508 79.8555 255.299 79.9434 255.117 80.1191C254.941 80.2949 254.854 80.5228 254.854 80.8027V82.5215H256.758V83.8398H254.844ZM264.189 83.8691C263.87 83.6738 263.467 83.5762 262.979 83.5762C262.484 83.5762 262.038 83.7715 261.641 84.1621C260.892 84.8913 260.518 86.0794 260.518 87.7266V93H259.033V82.5215H260.518V84.2891C260.635 83.9049 260.837 83.5566 261.123 83.2441C261.41 82.9316 261.748 82.6875 262.139 82.5117C262.529 82.3294 262.933 82.2383 263.35 82.2383C263.981 82.2383 264.521 82.3555 264.971 82.5898L264.189 83.8691ZM268.936 85.998C269.365 85.998 269.769 86.0794 270.146 86.2422C270.531 86.4049 270.846 86.6068 271.094 86.8477C271.348 87.0885 271.501 87.3197 271.553 87.541V86.6035C271.553 85.679 271.344 84.9629 270.928 84.4551C270.518 83.9408 269.932 83.6836 269.17 83.6836C268.727 83.6836 268.304 83.7552 267.9 83.8984C267.503 84.0352 267.194 84.2142 266.973 84.4355L266.211 83.4199C267.077 82.7103 268.06 82.3555 269.16 82.3555C269.889 82.3555 270.537 82.5247 271.104 82.8633C271.676 83.2018 272.122 83.6934 272.441 84.3379C272.767 84.9759 272.93 85.7311 272.93 86.6035V93H271.572V91.4766C271.533 91.6979 271.383 91.9518 271.123 92.2383C270.863 92.5247 270.534 92.7721 270.137 92.9805C269.746 93.1823 269.342 93.2832 268.926 93.2832C268.229 93.2832 267.604 93.1302 267.051 92.8242C266.504 92.5182 266.074 92.0918 265.762 91.5449C265.449 90.9915 265.293 90.3665 265.293 89.6699C265.293 88.9733 265.452 88.3451 265.771 87.7852C266.097 87.2253 266.536 86.7891 267.09 86.4766C267.65 86.1576 268.265 85.998 268.936 85.998ZM271.572 89.6211C271.572 89.1914 271.462 88.8008 271.24 88.4492C271.025 88.0977 270.732 87.821 270.361 87.6191C269.99 87.4173 269.587 87.3164 269.15 87.3164C268.714 87.3164 268.317 87.4206 267.959 87.6289C267.601 87.8372 267.318 88.1204 267.109 88.4785C266.901 88.8366 266.797 89.2305 266.797 89.6602C266.797 90.0898 266.901 90.4805 267.109 90.832C267.324 91.1836 267.614 91.4603 267.979 91.6621C268.35 91.8639 268.753 91.9648 269.189 91.9648C269.626 91.9648 270.026 91.8607 270.391 91.6523C270.755 91.444 271.042 91.1608 271.25 90.8027C271.465 90.4447 271.572 90.0508 271.572 89.6211ZM282.52 93H281.035V87.6582C281.035 86.1217 280.853 85.0378 280.488 84.4062C280.176 83.8529 279.697 83.5762 279.053 83.5762C277.633 83.5762 276.924 84.9271 276.924 87.6289V93H275.439V82.5215H276.924V84.2988C277.191 83.7389 277.441 83.3158 277.676 83.0293C277.917 82.7363 278.187 82.5312 278.486 82.4141C278.786 82.2969 279.163 82.2383 279.619 82.2383C280.264 82.2383 280.83 82.4596 281.318 82.9023C281.807 83.3385 282.142 83.9049 282.324 84.6016C282.5 83.8984 282.835 83.3288 283.33 82.8926C283.825 82.4564 284.417 82.2383 285.107 82.2383C286.117 82.2383 286.868 82.6191 287.363 83.3809C287.865 84.1361 288.115 85.2168 288.115 86.623V93H286.641V87.6973C286.641 86.3626 286.53 85.4219 286.309 84.875C286.087 84.3216 285.794 83.9603 285.43 83.791C285.215 83.6934 284.967 83.6445 284.688 83.6445C283.242 83.6445 282.52 84.9759 282.52 87.6387V93ZM290.439 80.0117C290.439 79.7448 290.527 79.5202 290.703 79.3379C290.885 79.1556 291.097 79.0645 291.338 79.0645C291.585 79.0645 291.803 79.1491 291.992 79.3184C292.181 79.4876 292.275 79.6992 292.275 79.9531C292.275 80.2135 292.184 80.4382 292.002 80.627C291.826 80.8092 291.621 80.9004 291.387 80.9004C291.139 80.9004 290.918 80.819 290.723 80.6562C290.534 80.487 290.439 80.2721 290.439 80.0117ZM290.625 82.5215H292.1V93H290.625V82.5215ZM296.104 93H294.619V82.5215H296.104V84.2891C296.227 83.8984 296.429 83.5501 296.709 83.2441C296.995 82.9316 297.34 82.6875 297.744 82.5117C298.154 82.3294 298.6 82.2383 299.082 82.2383C299.824 82.2383 300.465 82.4434 301.006 82.8535C301.546 83.2572 301.963 83.8691 302.256 84.6895C302.549 85.5033 302.695 86.5124 302.695 87.7168V93H301.221V87.7168C301.221 85.7702 300.765 84.4974 299.854 83.8984C299.521 83.6836 299.102 83.5762 298.594 83.5762C298.079 83.5762 297.624 83.7715 297.227 84.1621C296.478 84.8913 296.104 86.0794 296.104 87.7266V93ZM308.32 82.2383C309.674 82.2383 310.648 82.9414 311.24 84.3477V82.5215H312.725V93.1758C312.725 93.8073 312.614 94.3932 312.393 94.9336C312.171 95.474 311.868 95.9232 311.484 96.2812C310.69 97.0169 309.782 97.3848 308.76 97.3848C308.18 97.3848 307.633 97.2806 307.119 97.0723C306.605 96.8639 306.178 96.5872 305.84 96.2422C305.176 95.5716 304.795 94.8457 304.697 94.0645H306.094C306.152 94.4355 306.309 94.7708 306.562 95.0703C306.823 95.3763 307.142 95.6172 307.52 95.793C307.904 95.9688 308.307 96.0566 308.73 96.0566C309.167 96.0566 309.577 95.946 309.961 95.7246C310.345 95.5098 310.654 95.194 310.889 94.7773C311.123 94.3672 311.24 93.8822 311.24 93.3223V91.2031C310.791 92.2122 310.189 92.8503 309.434 93.1172C309.102 93.2279 308.704 93.2832 308.242 93.2832C307.773 93.2832 307.318 93.179 306.875 92.9707C306.439 92.7624 306.074 92.4824 305.781 92.1309C305.495 91.7858 305.247 91.3724 305.039 90.8906C304.655 89.9727 304.463 89.0352 304.463 88.0781C304.463 87.1471 304.535 86.3594 304.678 85.7148C304.827 85.0703 305.055 84.4746 305.361 83.9277C305.667 83.3939 306.074 82.9805 306.582 82.6875C307.09 82.388 307.669 82.2383 308.32 82.2383ZM306.719 84.6699C306.217 85.4186 305.967 86.4408 305.967 87.7363C305.967 88.5892 306.081 89.3346 306.309 89.9727C306.536 90.6107 306.849 91.1022 307.246 91.4473C307.65 91.7923 308.102 91.9648 308.604 91.9648C309.105 91.9648 309.561 91.7923 309.971 91.4473C310.381 91.1022 310.703 90.6107 310.938 89.9727C311.172 89.3281 311.289 88.5859 311.289 87.7461C311.289 86.9062 311.169 86.1706 310.928 85.5391C310.693 84.9076 310.371 84.4225 309.961 84.084C309.557 83.7389 309.102 83.5664 308.594 83.5664C307.845 83.5664 307.22 83.9342 306.719 84.6699ZM315.771 91.0273C316.019 91.0273 316.24 91.1022 316.436 91.252C316.631 91.4017 316.748 91.5579 316.787 91.7207C316.82 91.8835 316.836 92.0397 316.836 92.1895C316.836 92.3587 316.81 92.5671 316.758 92.8145C316.712 93.0618 316.654 93.2832 316.582 93.4785C316.517 93.6543 316.432 93.8431 316.328 94.0449C316.224 94.2467 316.13 94.4128 316.045 94.543C316.038 94.5495 315.957 94.6764 315.801 94.9238L315.635 95.1582L315.088 94.8555C315.557 94.1849 315.791 93.6055 315.791 93.1172C315.615 93.1172 315.446 93.0749 315.283 92.9902C315.12 92.9056 314.987 92.7884 314.883 92.6387C314.785 92.4824 314.736 92.3034 314.736 92.1016C314.736 91.8021 314.837 91.5482 315.039 91.3398C315.247 91.1315 315.492 91.0273 315.771 91.0273ZM326.396 84.3477C326.995 82.9414 327.969 82.2383 329.316 82.2383C329.967 82.2383 330.547 82.388 331.055 82.6875C331.569 82.987 331.976 83.4036 332.275 83.9375C332.874 84.9857 333.174 86.252 333.174 87.7363C333.174 89.2077 332.874 90.4772 332.275 91.5449C331.982 92.0723 331.579 92.4954 331.064 92.8145C330.557 93.127 330.033 93.2832 329.492 93.2832C328.978 93.2832 328.555 93.2279 328.223 93.1172C327.897 93.013 327.614 92.8503 327.373 92.6289C326.982 92.2708 326.657 91.7956 326.396 91.2031V97.1797H324.912V82.5215H326.396V84.3477ZM330.918 90.8223C331.419 90.0671 331.67 89.0384 331.67 87.7363C331.67 86.8835 331.556 86.1445 331.328 85.5195C331.107 84.888 330.798 84.4062 330.4 84.0742C330.003 83.7357 329.551 83.5664 329.043 83.5664C328.535 83.5664 328.076 83.7389 327.666 84.084C327.262 84.4225 326.94 84.9076 326.699 85.5391C326.465 86.1706 326.348 86.9062 326.348 87.7461C326.348 88.5859 326.465 89.3281 326.699 89.9727C326.94 90.6107 327.266 91.1022 327.676 91.4473C328.086 91.7923 328.542 91.9648 329.043 91.9648C329.798 91.9648 330.423 91.584 330.918 90.8223ZM340.264 83.8691C339.945 83.6738 339.541 83.5762 339.053 83.5762C338.558 83.5762 338.112 83.7715 337.715 84.1621C336.966 84.8913 336.592 86.0794 336.592 87.7266V93H335.107V82.5215H336.592V84.2891C336.709 83.9049 336.911 83.5566 337.197 83.2441C337.484 82.9316 337.822 82.6875 338.213 82.5117C338.604 82.3294 339.007 82.2383 339.424 82.2383C340.055 82.2383 340.596 82.3555 341.045 82.5898L340.264 83.8691ZM343.477 92.5312C342.845 92.043 342.363 91.3952 342.031 90.5879C341.706 89.7741 341.543 88.8952 341.543 87.9512C341.543 87.0658 341.631 86.2943 341.807 85.6367C341.989 84.9727 342.259 84.3867 342.617 83.8789C343.359 82.8372 344.424 82.3164 345.811 82.3164C346.709 82.3164 347.487 82.5605 348.145 83.0488C349.427 84.0059 350.068 85.5749 350.068 87.7559C350.068 89.9694 349.434 91.5612 348.164 92.5312C347.507 93.0326 346.725 93.2832 345.82 93.2832C344.915 93.2832 344.134 93.0326 343.477 92.5312ZM344.219 84.2109C343.815 84.5755 343.519 85.0508 343.33 85.6367C343.141 86.2161 343.047 86.8704 343.047 87.5996C343.047 88.2832 343.099 88.8757 343.203 89.377C343.307 89.8717 343.467 90.3177 343.682 90.7148C344.144 91.5482 344.854 91.9648 345.811 91.9648C347.184 91.9648 348.05 91.1022 348.408 89.377C348.512 88.8952 348.564 88.3027 348.564 87.5996C348.564 86.8704 348.47 86.2161 348.281 85.6367C348.092 85.0508 347.796 84.5755 347.393 84.2109C346.976 83.8333 346.449 83.6445 345.811 83.6445C345.166 83.6445 344.635 83.8333 344.219 84.2109ZM353.223 83.8398H351.836V82.5215H353.223V80.0801H354.697V82.5215H356.621V83.8398H354.697V90.9004C354.697 91.6621 355.078 92.043 355.84 92.043H356.523V93.2832H355.84C355.195 93.2832 354.681 93.2051 354.297 93.0488C353.919 92.8926 353.646 92.6452 353.477 92.3066C353.307 91.9616 353.223 91.5059 353.223 90.9395V83.8398ZM360.566 92.5312C359.935 92.043 359.453 91.3952 359.121 90.5879C358.796 89.7741 358.633 88.8952 358.633 87.9512C358.633 87.0658 358.721 86.2943 358.896 85.6367C359.079 84.9727 359.349 84.3867 359.707 83.8789C360.449 82.8372 361.514 82.3164 362.9 82.3164C363.799 82.3164 364.577 82.5605 365.234 83.0488C366.517 84.0059 367.158 85.5749 367.158 87.7559C367.158 89.9694 366.523 91.5612 365.254 92.5312C364.596 93.0326 363.815 93.2832 362.91 93.2832C362.005 93.2832 361.224 93.0326 360.566 92.5312ZM361.309 84.2109C360.905 84.5755 360.609 85.0508 360.42 85.6367C360.231 86.2161 360.137 86.8704 360.137 87.5996C360.137 88.2832 360.189 88.8757 360.293 89.377C360.397 89.8717 360.557 90.3177 360.771 90.7148C361.234 91.5482 361.943 91.9648 362.9 91.9648C364.274 91.9648 365.14 91.1022 365.498 89.377C365.602 88.8952 365.654 88.3027 365.654 87.5996C365.654 86.8704 365.56 86.2161 365.371 85.6367C365.182 85.0508 364.886 84.5755 364.482 84.2109C364.066 83.8333 363.538 83.6445 362.9 83.6445C362.256 83.6445 361.725 83.8333 361.309 84.2109ZM370.312 83.8398H368.926V82.5215H370.312V80.0801H371.787V82.5215H373.711V83.8398H371.787V90.9004C371.787 91.6621 372.168 92.043 372.93 92.043H373.613V93.2832H372.93C372.285 93.2832 371.771 93.2051 371.387 93.0488C371.009 92.8926 370.736 92.6452 370.566 92.3066C370.397 91.9616 370.312 91.5059 370.312 90.9395V83.8398ZM383.975 93.1758C383.975 93.8008 383.854 94.3835 383.613 94.9238C383.372 95.4707 383.047 95.9232 382.637 96.2812C381.784 97.0169 380.84 97.3848 379.805 97.3848C378.418 97.3848 377.236 96.8184 376.26 95.6855L377.295 94.8555C377.972 95.6562 378.809 96.0566 379.805 96.0566C380.254 96.0566 380.684 95.9525 381.094 95.7441C381.504 95.5358 381.839 95.2233 382.1 94.8066C382.36 94.3965 382.49 93.9017 382.49 93.3223V91.2324C382.367 91.623 382.161 91.9746 381.875 92.2871C381.595 92.5931 381.25 92.834 380.84 93.0098C380.436 93.1921 379.993 93.2832 379.512 93.2832C378.77 93.2832 378.128 93.0814 377.588 92.6777C377.048 92.2676 376.631 91.6556 376.338 90.8418C376.045 90.0215 375.898 89.0091 375.898 87.8047V82.5215H377.373V87.8047C377.373 89.7513 377.829 91.0241 378.74 91.623C379.072 91.8379 379.495 91.9453 380.01 91.9453C380.518 91.9453 380.97 91.75 381.367 91.3594C382.116 90.6302 382.49 89.4421 382.49 87.7949V82.5215H383.975V93.1758ZM387.861 84.3477C388.46 82.9414 389.434 82.2383 390.781 82.2383C391.432 82.2383 392.012 82.388 392.52 82.6875C393.034 82.987 393.441 83.4036 393.74 83.9375C394.339 84.9857 394.639 86.252 394.639 87.7363C394.639 89.2077 394.339 90.4772 393.74 91.5449C393.447 92.0723 393.044 92.4954 392.529 92.8145C392.021 93.127 391.497 93.2832 390.957 93.2832C390.443 93.2832 390.02 93.2279 389.688 93.1172C389.362 93.013 389.079 92.8503 388.838 92.6289C388.447 92.2708 388.122 91.7956 387.861 91.2031V97.1797H386.377V82.5215H387.861V84.3477ZM392.383 90.8223C392.884 90.0671 393.135 89.0384 393.135 87.7363C393.135 86.8835 393.021 86.1445 392.793 85.5195C392.572 84.888 392.262 84.4062 391.865 84.0742C391.468 83.7357 391.016 83.5664 390.508 83.5664C390 83.5664 389.541 83.7389 389.131 84.084C388.727 84.4225 388.405 84.9076 388.164 85.5391C387.93 86.1706 387.812 86.9062 387.812 87.7461C387.812 88.5859 387.93 89.3281 388.164 89.9727C388.405 90.6107 388.73 91.1022 389.141 91.4473C389.551 91.7923 390.007 91.9648 390.508 91.9648C391.263 91.9648 391.888 91.584 392.383 90.8223ZM396.592 80.0117C396.592 79.7448 396.68 79.5202 396.855 79.3379C397.038 79.1556 397.249 79.0645 397.49 79.0645C397.738 79.0645 397.956 79.1491 398.145 79.3184C398.333 79.4876 398.428 79.6992 398.428 79.9531C398.428 80.2135 398.337 80.4382 398.154 80.627C397.979 80.8092 397.773 80.9004 397.539 80.9004C397.292 80.9004 397.07 80.819 396.875 80.6562C396.686 80.487 396.592 80.2721 396.592 80.0117ZM396.777 82.5215H398.252V93H396.777V82.5215ZM402.256 93H400.771V82.5215H402.256V84.2891C402.38 83.8984 402.581 83.5501 402.861 83.2441C403.148 82.9316 403.493 82.6875 403.896 82.5117C404.307 82.3294 404.753 82.2383 405.234 82.2383C405.977 82.2383 406.618 82.4434 407.158 82.8535C407.699 83.2572 408.115 83.8691 408.408 84.6895C408.701 85.5033 408.848 86.5124 408.848 87.7168V93H407.373V87.7168C407.373 85.7702 406.917 84.4974 406.006 83.8984C405.674 83.6836 405.254 83.5762 404.746 83.5762C404.232 83.5762 403.776 83.7715 403.379 84.1621C402.63 84.8913 402.256 86.0794 402.256 87.7266V93ZM414.473 82.2383C415.827 82.2383 416.8 82.9414 417.393 84.3477V82.5215H418.877V93.1758C418.877 93.8073 418.766 94.3932 418.545 94.9336C418.324 95.474 418.021 95.9232 417.637 96.2812C416.842 97.0169 415.934 97.3848 414.912 97.3848C414.333 97.3848 413.786 97.2806 413.271 97.0723C412.757 96.8639 412.331 96.5872 411.992 96.2422C411.328 95.5716 410.947 94.8457 410.85 94.0645H412.246C412.305 94.4355 412.461 94.7708 412.715 95.0703C412.975 95.3763 413.294 95.6172 413.672 95.793C414.056 95.9688 414.46 96.0566 414.883 96.0566C415.319 96.0566 415.729 95.946 416.113 95.7246C416.497 95.5098 416.807 95.194 417.041 94.7773C417.275 94.3672 417.393 93.8822 417.393 93.3223V91.2031C416.943 92.2122 416.341 92.8503 415.586 93.1172C415.254 93.2279 414.857 93.2832 414.395 93.2832C413.926 93.2832 413.47 93.179 413.027 92.9707C412.591 92.7624 412.227 92.4824 411.934 92.1309C411.647 91.7858 411.4 91.3724 411.191 90.8906C410.807 89.9727 410.615 89.0352 410.615 88.0781C410.615 87.1471 410.687 86.3594 410.83 85.7148C410.98 85.0703 411.208 84.4746 411.514 83.9277C411.82 83.3939 412.227 82.9805 412.734 82.6875C413.242 82.388 413.822 82.2383 414.473 82.2383ZM412.871 84.6699C412.37 85.4186 412.119 86.4408 412.119 87.7363C412.119 88.5892 412.233 89.3346 412.461 89.9727C412.689 90.6107 413.001 91.1022 413.398 91.4473C413.802 91.7923 414.255 91.9648 414.756 91.9648C415.257 91.9648 415.713 91.7923 416.123 91.4473C416.533 91.1022 416.855 90.6107 417.09 89.9727C417.324 89.3281 417.441 88.5859 417.441 87.7461C417.441 86.9062 417.321 86.1706 417.08 85.5391C416.846 84.9076 416.523 84.4225 416.113 84.084C415.71 83.7389 415.254 83.5664 414.746 83.5664C413.997 83.5664 413.372 83.9342 412.871 84.6699Z" fill="black"/>
<defs>
<filter id="filter0_d_42_58" x="0" y="0" width="466" height="146" filterUnits="userSpaceOnUse" color-interpolation-filters="sRGB">
<feFlood flood-opacity="0" result="BackgroundImageFix"/>
<feColorMatrix in="SourceAlpha" type="matrix" values="0 0 0 0 0 0 0 0 0 0 0 0 0 0 0 0 0 0 127 0" result="hardAlpha"/>
<feMorphology radius="3" operator="dilate" in="SourceAlpha" result="effect1_dropShadow_42_58"/>
<feOffset dx="3" dy="3"/>
<feGaussianBlur stdDeviation="5"/>
<feComposite in2="hardAlpha" operator="out"/>
<feColorMatrix type="matrix" values="0 0 0 0 0.85098 0 0 0 0 0.823529 0 0 0 0 1 0 0 0 1 0"/>
<feBlend mode="normal" in2="BackgroundImageFix" result="effect1_dropShadow_42_58"/>
<feBlend mode="normal" in="SourceGraphic" in2="effect1_dropShadow_42_58" result="shape"/>
</filter>
</defs>
</svg>
