<svg width="111" height="136" viewBox="0 0 111 136" fill="none" xmlns="http://www.w3.org/2000/svg">
<path d="M32.3121 70.8936C25.078 84.8794 10.1277 84.8794 0 84.8794H38.5816V33.7589C38.5816 40.5106 38.5816 58.7726 32.3121 70.8936Z" fill="#FFF388"/>
<path d="M44.851 70.8936C52.0851 84.8794 67.0354 84.8794 77.1631 84.8794H38.5815V33.7589C38.5815 40.5106 38.5815 58.7726 44.851 70.8936Z" fill="#FFF388"/>
<path d="M32.3121 98.8652C25.078 84.8794 10.1277 84.8794 0 84.8794H38.5816V136C38.5816 129.248 38.5816 110.986 32.3121 98.8652Z" fill="#FFF388"/>
<path d="M44.851 98.8652C52.0851 84.8794 67.0354 84.8794 77.1631 84.8794H38.5815V136C38.5815 129.248 38.5815 110.986 44.851 98.8652Z" fill="#FFF388"/>
<path d="M86.2539 20.4241C82.2752 28.1163 74.0525 28.1163 68.4823 28.1163H89.7022V0C89.7022 3.71348 89.7022 13.7575 86.2539 20.4241Z" fill="#FFF388"/>
<path d="M93.1505 20.4241C97.1292 28.1163 105.352 28.1163 110.922 28.1163H89.7023V0C89.7023 3.71348 89.7023 13.7575 93.1505 20.4241Z" fill="#FFF388"/>
<path d="M86.2539 35.8085C82.2752 28.1163 74.0525 28.1163 68.4823 28.1163H89.7022V56.2326C89.7022 52.5192 89.7022 42.4751 86.2539 35.8085Z" fill="#FFF388"/>
<path d="M93.1505 35.8085C97.1292 28.1163 105.352 28.1163 110.922 28.1163H89.7023V56.2326C89.7023 52.5192 89.7023 42.4751 93.1505 35.8085Z" fill="#FFF388"/>
</svg>
