<svg width="1728" height="242" viewBox="0 0 1728 242" fill="none" xmlns="http://www.w3.org/2000/svg">
<path d="M182.5 95.0837C121.139 59.1518 35 69.4811 1 79.4811V149.481C47.5 121.981 107.9 110.961 165.5 135.084C234.5 163.981 254.5 190.084 334.5 190.084C418 190.084 429.396 154.084 539.5 154.084C653 154.084 767 216.481 919 216.481C1053.58 216.481 1258.7 126.981 1352.5 126.981C1460.5 126.981 1515.5 186.04 1587 190.481C1645.5 194.115 1691 182.584 1728 167.584V102.084C1698 131.084 1648 156.981 1587 156.981C1529 156.981 1482 90.9811 1352.5 84.4811C1223 77.9811 1087 183.584 919 183.584C718 183.584 659.5 130.584 539.5 130.584C436.5 130.584 394 168.134 334.5 171.584C275 175.033 238 127.584 182.5 95.0837Z" fill="#BAEEFF" fill-opacity="0.5"/>
<path d="M0 33V131C19.1667 126.5 64.5 107.5 118.5 125C164.319 139.849 222.476 210.754 318 219.5C406.5 227.603 460.5 174.5 567.5 171.5C680.456 168.333 750.014 241.397 897 241.397C1038 241.397 1268 155.5 1355.5 114C1443 72.5 1558 83 1617 114C1673.68 143.78 1716.5 179 1728 193V130C1715.5 119 1691.26 96.5273 1634 64.3974C1582.5 35.5 1476.38 2.24374 1341 69.5C1185 147 1044 212.694 897 219.5C735 227 681 155 567.5 155C454 155 414.5 207.397 322.5 201.397C230.5 195.397 190.46 137.106 126 89C64.5 43.1026 25 38.1667 0 33Z" fill="#FFDCFB" fill-opacity="0.5"/>
<path d="M1625.5 0.397461C1682 0.397461 1715.17 25.8333 1728 36V147C1711 126.5 1666.5 96 1614 92.3976C1551.76 88.1271 1411.22 171.112 1283.5 193.5C1158 215.5 1025.5 141 906.5 150C787.5 159 645 236.5 536.5 227C444.502 218.945 374.5 190.398 308 190.398C234 190.398 192.5 201.5 150.5 196.5C108.5 191.5 96 172.5 57.5 147C26.227 126.287 1.83333 148.667 0 153V80C19 82.5 38.5 86 61.5 105.898C94.1206 134.118 101.5 176.5 155 182.5C208.5 188.5 234 157 308 162.398C382 167.795 378 190.398 536.5 205.898C695 221.398 754.5 106.537 903 98.5C1048.28 90.6375 1090 193.429 1266 158C1348.5 141.393 1406.06 94.7549 1461 63.3975C1509 36 1556 0.397461 1625.5 0.397461Z" fill="#BAD9FF" fill-opacity="0.5"/>
</svg>
