<svg width="1728" height="651" viewBox="0 0 1728 651" fill="none" xmlns="http://www.w3.org/2000/svg">
<path d="M0 651V22C200 52 156.321 191.349 220 308C276.5 411.5 429.744 406.48 625.328 346.445C926.5 254 1206.5 346.445 1387.34 513.968C1486.81 606.114 1611.05 634.738 1727 651H0Z" fill="#BAEEFF" fill-opacity="0.5"/>
<path opacity="0.5" d="M0 651V0C151.5 65.8577 129.355 183.88 167.5 217C213.981 257.357 277.5 220.303 370.5 267.219C471.167 318.003 443.65 423.659 659.5 366.5C798.152 329.784 980 376.5 1093.67 450.344C1225 535.66 1413.96 452.168 1542.76 500.885C1666 547.5 1644.61 642.702 1728 651H0Z" fill="#FFDCFB" fill-opacity="0.5"/>
<path d="M0 650V32C37.588 66.6542 100.5 100.5 109.347 199.88C118.194 299.261 116.5 408.974 204 445C328.5 496.26 508 399 705.972 422.822C918.5 448.396 949.633 536.479 1071 554.5C1220.13 576.643 1368.07 530.85 1477.55 538.336C1575 545 1667 574.5 1728 651L0 650Z" fill="#BAD9FF" fill-opacity="0.5"/>
</svg>
