<svg width="479" height="146" viewBox="0 0 479 146" fill="none" xmlns="http://www.w3.org/2000/svg">
<g filter="url(#filter0_d_42_64)">
<rect x="10" y="10" width="453" height="120" rx="35" fill="white"/>
</g>
<path d="M42.0996 59.5039C42.1908 59.888 42.3926 60.2656 42.7051 60.6367C43.0241 61.0078 43.418 61.3105 43.8867 61.5449C44.3555 61.7793 44.8568 61.8965 45.3906 61.8965C45.9505 61.8965 46.4746 61.7891 46.9629 61.5742C47.4577 61.3594 47.8548 61.0599 48.1543 60.6758C48.4538 60.2917 48.6035 59.8587 48.6035 59.377C48.6035 58.1009 47.5521 57.043 45.4492 56.2031L44.7852 55.9395C44.2643 55.7441 43.8411 55.5651 43.5156 55.4023C42.8646 55.0833 42.4056 54.7806 42.1387 54.4941C41.9889 54.3444 41.8164 54.1263 41.6211 53.8398C41.2826 53.3451 41.1133 52.7005 41.1133 51.9062C41.1133 51.2096 41.2923 50.5977 41.6504 50.0703C42.015 49.5365 42.5098 49.1263 43.1348 48.8398C43.7598 48.5469 44.4564 48.4004 45.2246 48.4004C45.9733 48.4004 46.6536 48.5273 47.2656 48.7812C47.8776 49.0286 48.3919 49.3737 48.8086 49.8164C49.2253 50.2591 49.5247 50.7669 49.707 51.3398L48.2227 51.584C48.1185 51.265 47.9232 50.9688 47.6367 50.6953C47.3568 50.4154 47.0085 50.194 46.5918 50.0312C46.1751 49.862 45.7292 49.7773 45.2539 49.7773C44.7656 49.7773 44.3262 49.8717 43.9355 50.0605C43.5514 50.2428 43.2487 50.4967 43.0273 50.8223C42.806 51.1413 42.6953 51.5026 42.6953 51.9062C42.6953 52.4141 42.8288 52.8438 43.0957 53.1953C43.3626 53.5469 43.6882 53.8138 44.0723 53.9961C44.3978 54.1589 44.6517 54.2793 44.834 54.3574C45.0163 54.4355 45.2669 54.5365 45.5859 54.6602C46.2695 54.9206 46.7936 55.1452 47.1582 55.334C47.9004 55.7116 48.4505 56.0794 48.8086 56.4375C49.0495 56.6784 49.2676 56.9388 49.4629 57.2188C49.8861 57.8112 50.0977 58.5339 50.0977 59.3867C50.0977 60.2461 49.8763 60.9753 49.4336 61.5742C48.5742 62.7135 47.1842 63.2832 45.2637 63.2832C44.0592 63.2832 43.0501 62.9772 42.2363 62.3652C41.429 61.7467 40.8301 60.8939 40.4395 59.8066L42.0996 59.5039ZM55.2246 56.9844L59.7266 63H58.0273L54.3262 58L53.291 59.2988V63H51.8066V48.8008H53.291V57.3164L57.2852 52.5215H58.9844L55.2246 56.9844ZM61.0449 50.0117C61.0449 49.7448 61.1328 49.5202 61.3086 49.3379C61.4909 49.1556 61.7025 49.0645 61.9434 49.0645C62.1908 49.0645 62.4089 49.1491 62.5977 49.3184C62.7865 49.4876 62.8809 49.6992 62.8809 49.9531C62.8809 50.2135 62.7897 50.4382 62.6074 50.627C62.4316 50.8092 62.2266 50.9004 61.9922 50.9004C61.7448 50.9004 61.5234 50.819 61.3281 50.6562C61.1393 50.487 61.0449 50.2721 61.0449 50.0117ZM61.2305 52.5215H62.7051V63H61.2305V52.5215ZM66.9043 60.9785C66.9043 61.6621 67.2917 62.0039 68.0664 62.0039V63.2832C67.2331 63.2832 66.5853 63.1237 66.123 62.8047C65.6608 62.4792 65.4297 61.8835 65.4297 61.0176V48.8008H66.9043V60.9785ZM71.1035 60.9785C71.1035 61.6621 71.4909 62.0039 72.2656 62.0039V63.2832C71.4323 63.2832 70.7845 63.1237 70.3223 62.8047C69.86 62.4792 69.6289 61.8835 69.6289 61.0176V48.8008H71.1035V60.9785ZM77.0801 58.3809C76.5462 58.2051 76.1523 58.0684 75.8984 57.9707C75.651 57.8665 75.3743 57.7266 75.0684 57.5508C74.7493 57.375 74.4824 57.1732 74.2676 56.9453C73.7858 56.444 73.5449 55.7865 73.5449 54.9727C73.5449 54.4453 73.6914 53.9798 73.9844 53.5762C74.2839 53.1725 74.6908 52.86 75.2051 52.6387C75.7194 52.4108 76.2988 52.2904 76.9434 52.2773C78.3431 52.2773 79.3783 52.7786 80.0488 53.7812C80.2051 54.0156 80.3223 54.2533 80.4004 54.4941L78.9746 54.7871C78.623 53.9928 77.9525 53.5957 76.9629 53.5957C76.416 53.5957 75.957 53.7292 75.5859 53.9961C75.2214 54.2565 75.0391 54.6113 75.0391 55.0605C75.0391 55.2884 75.0684 55.4674 75.127 55.5977C75.1855 55.7279 75.2409 55.8288 75.293 55.9004C75.3516 55.9655 75.3874 56.0078 75.4004 56.0273C75.446 56.1055 75.5273 56.1803 75.6445 56.252C75.7487 56.3301 75.8366 56.3887 75.9082 56.4277C75.9668 56.4733 76.0645 56.5221 76.2012 56.5742L76.4648 56.6914C76.5885 56.7435 76.7122 56.7891 76.8359 56.8281L77.3926 57.0234L77.8613 57.1992C78.0046 57.2513 78.1706 57.3197 78.3594 57.4043C78.5547 57.4824 78.7109 57.5508 78.8281 57.6094C79.2188 57.8242 79.5085 58.0195 79.6973 58.1953C79.9902 58.4753 80.2018 58.7552 80.332 59.0352C80.4883 59.3932 80.5664 59.7806 80.5664 60.1973C80.5664 60.7832 80.4036 61.3105 80.0781 61.7793C79.7591 62.248 79.3262 62.6159 78.7793 62.8828C78.2324 63.1497 77.6335 63.2832 76.9824 63.2832C76.0254 63.2832 75.2376 63.0716 74.6191 62.6484C74.0007 62.2253 73.5612 61.6361 73.3008 60.8809L74.7363 60.6074C74.9447 61.0632 75.2214 61.4049 75.5664 61.6328C75.9115 61.8542 76.3867 61.9648 76.9922 61.9648C77.6237 61.9648 78.125 61.8086 78.4961 61.4961C78.8737 61.1771 79.0625 60.7441 79.0625 60.1973C79.0625 59.7285 78.8802 59.3574 78.5156 59.084C78.1576 58.8105 77.679 58.5762 77.0801 58.3809ZM82.6855 63H81.1426L88.1445 47.9219H89.6875L82.6855 63ZM90.1172 48.7812H100.781V50.1582H96.3184V63H94.7754V50.1582H90.1172V48.7812ZM104.336 62.5312C103.704 62.043 103.223 61.3952 102.891 60.5879C102.565 59.7741 102.402 58.8952 102.402 57.9512C102.402 57.0658 102.49 56.2943 102.666 55.6367C102.848 54.9727 103.118 54.3867 103.477 53.8789C104.219 52.8372 105.283 52.3164 106.67 52.3164C107.568 52.3164 108.346 52.5605 109.004 53.0488C110.286 54.0059 110.928 55.5749 110.928 57.7559C110.928 59.9694 110.293 61.5612 109.023 62.5312C108.366 63.0326 107.585 63.2832 106.68 63.2832C105.775 63.2832 104.993 63.0326 104.336 62.5312ZM105.078 54.2109C104.674 54.5755 104.378 55.0508 104.189 55.6367C104.001 56.2161 103.906 56.8704 103.906 57.5996C103.906 58.2832 103.958 58.8757 104.062 59.377C104.167 59.8717 104.326 60.3177 104.541 60.7148C105.003 61.5482 105.713 61.9648 106.67 61.9648C108.044 61.9648 108.91 61.1022 109.268 59.377C109.372 58.8952 109.424 58.3027 109.424 57.5996C109.424 56.8704 109.329 56.2161 109.141 55.6367C108.952 55.0508 108.656 54.5755 108.252 54.2109C107.835 53.8333 107.308 53.6445 106.67 53.6445C106.025 53.6445 105.495 53.8333 105.078 54.2109ZM114.629 62.5312C113.997 62.043 113.516 61.3952 113.184 60.5879C112.858 59.7741 112.695 58.8952 112.695 57.9512C112.695 57.0658 112.783 56.2943 112.959 55.6367C113.141 54.9727 113.411 54.3867 113.77 53.8789C114.512 52.8372 115.576 52.3164 116.963 52.3164C117.861 52.3164 118.639 52.5605 119.297 53.0488C120.579 54.0059 121.221 55.5749 121.221 57.7559C121.221 59.9694 120.586 61.5612 119.316 62.5312C118.659 63.0326 117.878 63.2832 116.973 63.2832C116.068 63.2832 115.286 63.0326 114.629 62.5312ZM115.371 54.2109C114.967 54.5755 114.671 55.0508 114.482 55.6367C114.294 56.2161 114.199 56.8704 114.199 57.5996C114.199 58.2832 114.251 58.8757 114.355 59.377C114.46 59.8717 114.619 60.3177 114.834 60.7148C115.296 61.5482 116.006 61.9648 116.963 61.9648C118.337 61.9648 119.202 61.1022 119.561 59.377C119.665 58.8952 119.717 58.3027 119.717 57.5996C119.717 56.8704 119.622 56.2161 119.434 55.6367C119.245 55.0508 118.949 54.5755 118.545 54.2109C118.128 53.8333 117.601 53.6445 116.963 53.6445C116.318 53.6445 115.788 53.8333 115.371 54.2109ZM124.932 60.9785C124.932 61.6621 125.319 62.0039 126.094 62.0039V63.2832C125.26 63.2832 124.613 63.1237 124.15 62.8047C123.688 62.4792 123.457 61.8835 123.457 61.0176V48.8008H124.932V60.9785ZM130.908 58.3809C130.374 58.2051 129.98 58.0684 129.727 57.9707C129.479 57.8665 129.202 57.7266 128.896 57.5508C128.577 57.375 128.311 57.1732 128.096 56.9453C127.614 56.444 127.373 55.7865 127.373 54.9727C127.373 54.4453 127.52 53.9798 127.812 53.5762C128.112 53.1725 128.519 52.86 129.033 52.6387C129.548 52.4108 130.127 52.2904 130.771 52.2773C132.171 52.2773 133.206 52.7786 133.877 53.7812C134.033 54.0156 134.15 54.2533 134.229 54.4941L132.803 54.7871C132.451 53.9928 131.781 53.5957 130.791 53.5957C130.244 53.5957 129.785 53.7292 129.414 53.9961C129.049 54.2565 128.867 54.6113 128.867 55.0605C128.867 55.2884 128.896 55.4674 128.955 55.5977C129.014 55.7279 129.069 55.8288 129.121 55.9004C129.18 55.9655 129.215 56.0078 129.229 56.0273C129.274 56.1055 129.355 56.1803 129.473 56.252C129.577 56.3301 129.665 56.3887 129.736 56.4277C129.795 56.4733 129.893 56.5221 130.029 56.5742L130.293 56.6914C130.417 56.7435 130.54 56.7891 130.664 56.8281L131.221 57.0234L131.689 57.1992C131.833 57.2513 131.999 57.3197 132.188 57.4043C132.383 57.4824 132.539 57.5508 132.656 57.6094C133.047 57.8242 133.337 58.0195 133.525 58.1953C133.818 58.4753 134.03 58.7552 134.16 59.0352C134.316 59.3932 134.395 59.7806 134.395 60.1973C134.395 60.7832 134.232 61.3105 133.906 61.7793C133.587 62.248 133.154 62.6159 132.607 62.8828C132.061 63.1497 131.462 63.2832 130.811 63.2832C129.854 63.2832 129.066 63.0716 128.447 62.6484C127.829 62.2253 127.389 61.6361 127.129 60.8809L128.564 60.6074C128.773 61.0632 129.049 61.4049 129.395 61.6328C129.74 61.8542 130.215 61.9648 130.82 61.9648C131.452 61.9648 131.953 61.8086 132.324 61.4961C132.702 61.1771 132.891 60.7441 132.891 60.1973C132.891 59.7285 132.708 59.3574 132.344 59.084C131.986 58.8105 131.507 58.5762 130.908 58.3809ZM136.299 54.9824C136.299 54.6829 136.4 54.429 136.602 54.2207C136.81 54.0124 137.054 53.9082 137.334 53.9082C137.614 53.9082 137.861 54.0059 138.076 54.2012C138.291 54.39 138.398 54.6309 138.398 54.9238C138.398 55.2298 138.298 55.487 138.096 55.6953C137.894 55.9036 137.656 56.0078 137.383 56.0078C137.096 56.0078 136.842 55.9134 136.621 55.7246C136.406 55.5293 136.299 55.2819 136.299 54.9824ZM136.299 62.1016C136.299 61.8021 136.4 61.5482 136.602 61.3398C136.81 61.1315 137.054 61.0273 137.334 61.0273C137.614 61.0273 137.861 61.125 138.076 61.3203C138.291 61.5091 138.398 61.75 138.398 62.043C138.398 62.349 138.298 62.6061 138.096 62.8145C137.894 63.0228 137.656 63.127 137.383 63.127C137.096 63.127 136.842 63.0326 136.621 62.8438C136.406 62.6484 136.299 62.401 136.299 62.1016ZM40.8594 78.7812H51.5234V80.1582H47.0605V93H45.5176V80.1582H40.8594V78.7812ZM54.8926 93H53.4082V78.7812H54.8926V84.2891C55.0163 83.8984 55.2181 83.5501 55.498 83.2441C55.7845 82.9316 56.1296 82.6875 56.5332 82.5117C56.9434 82.3294 57.3893 82.2383 57.8711 82.2383C58.6133 82.2383 59.2546 82.4434 59.7949 82.8535C60.3353 83.2572 60.752 83.8691 61.0449 84.6895C61.3379 85.5033 61.4844 86.5124 61.4844 87.7168V93H60.0098V87.7168C60.0098 85.7702 59.554 84.4974 58.6426 83.8984C58.3105 83.6836 57.8906 83.5762 57.3828 83.5762C56.8685 83.5762 56.4128 83.7715 56.0156 84.1621C55.2669 84.8913 54.8926 86.0794 54.8926 87.7266V93ZM70.3027 82.5215H71.7871V93H70.3027V91.2324C70.179 91.623 69.974 91.9746 69.6875 92.2871C69.4076 92.5931 69.0625 92.834 68.6523 93.0098C68.2487 93.1921 67.806 93.2832 67.3242 93.2832C66.582 93.2832 65.9408 93.0814 65.4004 92.6777C64.86 92.2676 64.4434 91.6556 64.1504 90.8418C63.8574 90.0215 63.7109 89.0091 63.7109 87.8047V82.5215H65.1855V87.8047C65.1855 89.7513 65.6413 91.0241 66.5527 91.623C66.8848 91.8379 67.3079 91.9453 67.8223 91.9453C68.3301 91.9453 68.7826 91.75 69.1797 91.3594C69.9284 90.6302 70.3027 89.4421 70.3027 87.7949V82.5215ZM75.6738 93H74.1895V82.5215H75.6738V84.2891C75.7975 83.8984 75.9993 83.5501 76.2793 83.2441C76.5658 82.9316 76.9108 82.6875 77.3145 82.5117C77.7246 82.3294 78.1706 82.2383 78.6523 82.2383C79.3945 82.2383 80.0358 82.4434 80.5762 82.8535C81.1165 83.2572 81.5332 83.8691 81.8262 84.6895C82.1191 85.5033 82.2656 86.5124 82.2656 87.7168V93H80.791V87.7168C80.791 85.7702 80.3353 84.4974 79.4238 83.8984C79.0918 83.6836 78.6719 83.5762 78.1641 83.5762C77.6497 83.5762 77.194 83.7715 76.7969 84.1621C76.0482 84.8913 75.6738 86.0794 75.6738 87.7266V93ZM87.998 86.9844L92.5 93H90.8008L87.0996 88L86.0645 89.2988V93H84.5801V78.8008H86.0645V87.3164L90.0586 82.5215H91.7578L87.998 86.9844ZM97.002 85.998C97.4316 85.998 97.8353 86.0794 98.2129 86.2422C98.597 86.4049 98.9128 86.6068 99.1602 86.8477C99.4141 87.0885 99.5671 87.3197 99.6191 87.541V86.6035C99.6191 85.679 99.4108 84.9629 98.9941 84.4551C98.584 83.9408 97.998 83.6836 97.2363 83.6836C96.7936 83.6836 96.3704 83.7552 95.9668 83.8984C95.5697 84.0352 95.2604 84.2142 95.0391 84.4355L94.2773 83.4199C95.1432 82.7103 96.1263 82.3555 97.2266 82.3555C97.9557 82.3555 98.6035 82.5247 99.1699 82.8633C99.7428 83.2018 100.189 83.6934 100.508 84.3379C100.833 84.9759 100.996 85.7311 100.996 86.6035V93H99.6387V91.4766C99.5996 91.6979 99.4499 91.9518 99.1895 92.2383C98.929 92.5247 98.6003 92.7721 98.2031 92.9805C97.8125 93.1823 97.4089 93.2832 96.9922 93.2832C96.2956 93.2832 95.6706 93.1302 95.1172 92.8242C94.5703 92.5182 94.1406 92.0918 93.8281 91.5449C93.5156 90.9915 93.3594 90.3665 93.3594 89.6699C93.3594 88.9733 93.5189 88.3451 93.8379 87.7852C94.1634 87.2253 94.6029 86.7891 95.1562 86.4766C95.7161 86.1576 96.3314 85.998 97.002 85.998ZM99.6387 89.6211C99.6387 89.1914 99.528 88.8008 99.3066 88.4492C99.0918 88.0977 98.7988 87.821 98.4277 87.6191C98.0566 87.4173 97.653 87.3164 97.2168 87.3164C96.7806 87.3164 96.3835 87.4206 96.0254 87.6289C95.6673 87.8372 95.3841 88.1204 95.1758 88.4785C94.9674 88.8366 94.8633 89.2305 94.8633 89.6602C94.8633 90.0898 94.9674 90.4805 95.1758 90.832C95.3906 91.1836 95.6803 91.4603 96.0449 91.6621C96.416 91.8639 96.8197 91.9648 97.2559 91.9648C97.6921 91.9648 98.0924 91.8607 98.457 91.6523C98.8216 91.444 99.1081 91.1608 99.3164 90.8027C99.5312 90.4447 99.6387 90.0508 99.6387 89.6211ZM104.99 84.3477C105.589 82.9414 106.562 82.2383 107.91 82.2383C108.561 82.2383 109.141 82.388 109.648 82.6875C110.163 82.987 110.57 83.4036 110.869 83.9375C111.468 84.9857 111.768 86.252 111.768 87.7363C111.768 89.2077 111.468 90.4772 110.869 91.5449C110.576 92.0723 110.173 92.4954 109.658 92.8145C109.15 93.127 108.626 93.2832 108.086 93.2832C107.572 93.2832 107.148 93.2279 106.816 93.1172C106.491 93.013 106.208 92.8503 105.967 92.6289C105.576 92.2708 105.251 91.7956 104.99 91.2031V93H103.506V78.8008H104.99V84.3477ZM109.512 90.8223C110.013 90.0671 110.264 89.0384 110.264 87.7363C110.264 86.8835 110.15 86.1445 109.922 85.5195C109.701 84.888 109.391 84.4062 108.994 84.0742C108.597 83.7357 108.145 83.5664 107.637 83.5664C107.129 83.5664 106.67 83.7389 106.26 84.084C105.856 84.4225 105.534 84.9076 105.293 85.5391C105.059 86.1706 104.941 86.9062 104.941 87.7461C104.941 88.5859 105.059 89.3281 105.293 89.9727C105.534 90.6107 105.859 91.1022 106.27 91.4473C106.68 91.7923 107.135 91.9648 107.637 91.9648C108.392 91.9648 109.017 91.584 109.512 90.8223ZM115.381 90.9785C115.381 91.6621 115.768 92.0039 116.543 92.0039V93.2832C115.71 93.2832 115.062 93.1237 114.6 92.8047C114.137 92.4792 113.906 91.8835 113.906 91.0176V78.8008H115.381V90.9785ZM125.674 88.4199H119.15C119.255 89.7806 119.668 90.7865 120.391 91.4375C120.775 91.7891 121.204 91.9648 121.68 91.9648C122.168 91.9648 122.64 91.8411 123.096 91.5938C123.551 91.3398 123.883 91.0176 124.092 90.627L125.391 91.1641C125.059 91.8086 124.551 92.3229 123.867 92.707C123.19 93.0911 122.448 93.2832 121.641 93.2832C120.846 93.2832 120.133 93.0358 119.502 92.541C118.87 92.0462 118.395 91.3822 118.076 90.5488C117.757 89.7285 117.598 88.7975 117.598 87.7559C117.598 86.7142 117.757 85.7897 118.076 84.9824C118.402 84.1686 118.874 83.5208 119.492 83.0391C120.124 82.5573 120.807 82.3164 121.543 82.3164C122.253 82.3164 122.868 82.4596 123.389 82.7461C123.91 83.026 124.336 83.4232 124.668 83.9375C125.332 84.9401 125.664 86.1217 125.664 87.4824L125.674 88.4199ZM124.248 87.1016C124.209 86.4701 124.079 85.8906 123.857 85.3633C123.636 84.8359 123.337 84.4193 122.959 84.1133C122.588 83.8008 122.168 83.6445 121.699 83.6445C121.204 83.6445 120.762 83.8203 120.371 84.1719C119.648 84.8294 119.242 85.806 119.15 87.1016H124.248ZM128.584 91.0273C128.831 91.0273 129.053 91.1022 129.248 91.252C129.443 91.4017 129.561 91.5579 129.6 91.7207C129.632 91.8835 129.648 92.0397 129.648 92.1895C129.648 92.3587 129.622 92.5671 129.57 92.8145C129.525 93.0618 129.466 93.2832 129.395 93.4785C129.329 93.6543 129.245 93.8431 129.141 94.0449C129.036 94.2467 128.942 94.4128 128.857 94.543C128.851 94.5495 128.77 94.6764 128.613 94.9238L128.447 95.1582L127.9 94.8555C128.369 94.1849 128.604 93.6055 128.604 93.1172C128.428 93.1172 128.258 93.0749 128.096 92.9902C127.933 92.9056 127.799 92.7884 127.695 92.6387C127.598 92.4824 127.549 92.3034 127.549 92.1016C127.549 91.8021 127.65 91.5482 127.852 91.3398C128.06 91.1315 128.304 91.0273 128.584 91.0273ZM143.281 84.582L141.064 93H139.922L137.129 82.5215H138.623L140.508 90.5586L142.549 82.5996H144.023L146.064 90.5586L147.949 82.5215H149.443L146.641 93H145.449L143.281 84.582ZM151.162 80.0117C151.162 79.7448 151.25 79.5202 151.426 79.3379C151.608 79.1556 151.82 79.0645 152.061 79.0645C152.308 79.0645 152.526 79.1491 152.715 79.3184C152.904 79.4876 152.998 79.6992 152.998 79.9531C152.998 80.2135 152.907 80.4382 152.725 80.627C152.549 80.8092 152.344 80.9004 152.109 80.9004C151.862 80.9004 151.641 80.819 151.445 80.6562C151.257 80.487 151.162 80.2721 151.162 80.0117ZM151.348 82.5215H152.822V93H151.348V82.5215ZM160.498 83.8691C160.179 83.6738 159.775 83.5762 159.287 83.5762C158.792 83.5762 158.346 83.7715 157.949 84.1621C157.201 84.8913 156.826 86.0794 156.826 87.7266V93H155.342V82.5215H156.826V84.2891C156.943 83.9049 157.145 83.5566 157.432 83.2441C157.718 82.9316 158.057 82.6875 158.447 82.5117C158.838 82.3294 159.242 82.2383 159.658 82.2383C160.29 82.2383 160.83 82.3555 161.279 82.5898L160.498 83.8691ZM169.404 88.4199H162.881C162.985 89.7806 163.398 90.7865 164.121 91.4375C164.505 91.7891 164.935 91.9648 165.41 91.9648C165.898 91.9648 166.37 91.8411 166.826 91.5938C167.282 91.3398 167.614 91.0176 167.822 90.627L169.121 91.1641C168.789 91.8086 168.281 92.3229 167.598 92.707C166.921 93.0911 166.178 93.2832 165.371 93.2832C164.577 93.2832 163.864 93.0358 163.232 92.541C162.601 92.0462 162.126 91.3822 161.807 90.5488C161.488 89.7285 161.328 88.7975 161.328 87.7559C161.328 86.7142 161.488 85.7897 161.807 84.9824C162.132 84.1686 162.604 83.5208 163.223 83.0391C163.854 82.5573 164.538 82.3164 165.273 82.3164C165.983 82.3164 166.598 82.4596 167.119 82.7461C167.64 83.026 168.066 83.4232 168.398 83.9375C169.062 84.9401 169.395 86.1217 169.395 87.4824L169.404 88.4199ZM167.979 87.1016C167.939 86.4701 167.809 85.8906 167.588 85.3633C167.367 84.8359 167.067 84.4193 166.689 84.1133C166.318 83.8008 165.898 83.6445 165.43 83.6445C164.935 83.6445 164.492 83.8203 164.102 84.1719C163.379 84.8294 162.972 85.806 162.881 87.1016H167.979ZM174.336 83.8398V93H172.852V83.8398H171.494V82.5215H172.842V81.2031C172.842 80.8255 172.933 80.4642 173.115 80.1191C173.304 79.7676 173.548 79.4779 173.848 79.25C174.46 78.7747 175 78.5371 175.469 78.5371C175.905 78.5371 176.247 78.599 176.494 78.7227C176.748 78.8398 177.028 79.0449 177.334 79.3379L176.27 80.3633C176.107 80.1549 175.951 80.0182 175.801 79.9531C175.658 79.888 175.469 79.8555 175.234 79.8555C175 79.8555 174.792 79.9434 174.609 80.1191C174.434 80.2949 174.346 80.5228 174.346 80.8027V82.5215H176.25V83.8398H174.336ZM183.682 83.8691C183.363 83.6738 182.959 83.5762 182.471 83.5762C181.976 83.5762 181.53 83.7715 181.133 84.1621C180.384 84.8913 180.01 86.0794 180.01 87.7266V93H178.525V82.5215H180.01V84.2891C180.127 83.9049 180.329 83.5566 180.615 83.2441C180.902 82.9316 181.24 82.6875 181.631 82.5117C182.021 82.3294 182.425 82.2383 182.842 82.2383C183.473 82.2383 184.014 82.3555 184.463 82.5898L183.682 83.8691ZM188.428 85.998C188.857 85.998 189.261 86.0794 189.639 86.2422C190.023 86.4049 190.339 86.6068 190.586 86.8477C190.84 87.0885 190.993 87.3197 191.045 87.541V86.6035C191.045 85.679 190.837 84.9629 190.42 84.4551C190.01 83.9408 189.424 83.6836 188.662 83.6836C188.219 83.6836 187.796 83.7552 187.393 83.8984C186.995 84.0352 186.686 84.2142 186.465 84.4355L185.703 83.4199C186.569 82.7103 187.552 82.3555 188.652 82.3555C189.382 82.3555 190.029 82.5247 190.596 82.8633C191.169 83.2018 191.615 83.6934 191.934 84.3379C192.259 84.9759 192.422 85.7311 192.422 86.6035V93H191.064V91.4766C191.025 91.6979 190.876 91.9518 190.615 92.2383C190.355 92.5247 190.026 92.7721 189.629 92.9805C189.238 93.1823 188.835 93.2832 188.418 93.2832C187.721 93.2832 187.096 93.1302 186.543 92.8242C185.996 92.5182 185.566 92.0918 185.254 91.5449C184.941 90.9915 184.785 90.3665 184.785 89.6699C184.785 88.9733 184.945 88.3451 185.264 87.7852C185.589 87.2253 186.029 86.7891 186.582 86.4766C187.142 86.1576 187.757 85.998 188.428 85.998ZM191.064 89.6211C191.064 89.1914 190.954 88.8008 190.732 88.4492C190.518 88.0977 190.225 87.821 189.854 87.6191C189.482 87.4173 189.079 87.3164 188.643 87.3164C188.206 87.3164 187.809 87.4206 187.451 87.6289C187.093 87.8372 186.81 88.1204 186.602 88.4785C186.393 88.8366 186.289 89.2305 186.289 89.6602C186.289 90.0898 186.393 90.4805 186.602 90.832C186.816 91.1836 187.106 91.4603 187.471 91.6621C187.842 91.8639 188.245 91.9648 188.682 91.9648C189.118 91.9648 189.518 91.8607 189.883 91.6523C190.247 91.444 190.534 91.1608 190.742 90.8027C190.957 90.4447 191.064 90.0508 191.064 89.6211ZM202.012 93H200.527V87.6582C200.527 86.1217 200.345 85.0378 199.98 84.4062C199.668 83.8529 199.189 83.5762 198.545 83.5762C197.126 83.5762 196.416 84.9271 196.416 87.6289V93H194.932V82.5215H196.416V84.2988C196.683 83.7389 196.934 83.3158 197.168 83.0293C197.409 82.7363 197.679 82.5312 197.979 82.4141C198.278 82.2969 198.656 82.2383 199.111 82.2383C199.756 82.2383 200.322 82.4596 200.811 82.9023C201.299 83.3385 201.634 83.9049 201.816 84.6016C201.992 83.8984 202.327 83.3288 202.822 82.8926C203.317 82.4564 203.91 82.2383 204.6 82.2383C205.609 82.2383 206.361 82.6191 206.855 83.3809C207.357 84.1361 207.607 85.2168 207.607 86.623V93H206.133V87.6973C206.133 86.3626 206.022 85.4219 205.801 84.875C205.579 84.3216 205.286 83.9603 204.922 83.791C204.707 83.6934 204.46 83.6445 204.18 83.6445C202.734 83.6445 202.012 84.9759 202.012 87.6387V93ZM209.932 80.0117C209.932 79.7448 210.02 79.5202 210.195 79.3379C210.378 79.1556 210.589 79.0645 210.83 79.0645C211.077 79.0645 211.296 79.1491 211.484 79.3184C211.673 79.4876 211.768 79.6992 211.768 79.9531C211.768 80.2135 211.676 80.4382 211.494 80.627C211.318 80.8092 211.113 80.9004 210.879 80.9004C210.632 80.9004 210.41 80.819 210.215 80.6562C210.026 80.487 209.932 80.2721 209.932 80.0117ZM210.117 82.5215H211.592V93H210.117V82.5215ZM215.596 93H214.111V82.5215H215.596V84.2891C215.719 83.8984 215.921 83.5501 216.201 83.2441C216.488 82.9316 216.833 82.6875 217.236 82.5117C217.646 82.3294 218.092 82.2383 218.574 82.2383C219.316 82.2383 219.958 82.4434 220.498 82.8535C221.038 83.2572 221.455 83.8691 221.748 84.6895C222.041 85.5033 222.188 86.5124 222.188 87.7168V93H220.713V87.7168C220.713 85.7702 220.257 84.4974 219.346 83.8984C219.014 83.6836 218.594 83.5762 218.086 83.5762C217.572 83.5762 217.116 83.7715 216.719 84.1621C215.97 84.8913 215.596 86.0794 215.596 87.7266V93ZM227.812 82.2383C229.167 82.2383 230.14 82.9414 230.732 84.3477V82.5215H232.217V93.1758C232.217 93.8073 232.106 94.3932 231.885 94.9336C231.663 95.474 231.361 95.9232 230.977 96.2812C230.182 97.0169 229.274 97.3848 228.252 97.3848C227.673 97.3848 227.126 97.2806 226.611 97.0723C226.097 96.8639 225.671 96.5872 225.332 96.2422C224.668 95.5716 224.287 94.8457 224.189 94.0645H225.586C225.645 94.4355 225.801 94.7708 226.055 95.0703C226.315 95.3763 226.634 95.6172 227.012 95.793C227.396 95.9688 227.799 96.0566 228.223 96.0566C228.659 96.0566 229.069 95.946 229.453 95.7246C229.837 95.5098 230.146 95.194 230.381 94.7773C230.615 94.3672 230.732 93.8822 230.732 93.3223V91.2031C230.283 92.2122 229.681 92.8503 228.926 93.1172C228.594 93.2279 228.197 93.2832 227.734 93.2832C227.266 93.2832 226.81 93.179 226.367 92.9707C225.931 92.7624 225.566 92.4824 225.273 92.1309C224.987 91.7858 224.74 91.3724 224.531 90.8906C224.147 89.9727 223.955 89.0352 223.955 88.0781C223.955 87.1471 224.027 86.3594 224.17 85.7148C224.32 85.0703 224.548 84.4746 224.854 83.9277C225.16 83.3939 225.566 82.9805 226.074 82.6875C226.582 82.388 227.161 82.2383 227.812 82.2383ZM226.211 84.6699C225.71 85.4186 225.459 86.4408 225.459 87.7363C225.459 88.5892 225.573 89.3346 225.801 89.9727C226.029 90.6107 226.341 91.1022 226.738 91.4473C227.142 91.7923 227.594 91.9648 228.096 91.9648C228.597 91.9648 229.053 91.7923 229.463 91.4473C229.873 91.1022 230.195 90.6107 230.43 89.9727C230.664 89.3281 230.781 88.5859 230.781 87.7461C230.781 86.9062 230.661 86.1706 230.42 85.5391C230.186 84.9076 229.863 84.4225 229.453 84.084C229.049 83.7389 228.594 83.5664 228.086 83.5664C227.337 83.5664 226.712 83.9342 226.211 84.6699ZM235.264 91.0273C235.511 91.0273 235.732 91.1022 235.928 91.252C236.123 91.4017 236.24 91.5579 236.279 91.7207C236.312 91.8835 236.328 92.0397 236.328 92.1895C236.328 92.3587 236.302 92.5671 236.25 92.8145C236.204 93.0618 236.146 93.2832 236.074 93.4785C236.009 93.6543 235.924 93.8431 235.82 94.0449C235.716 94.2467 235.622 94.4128 235.537 94.543C235.531 94.5495 235.449 94.6764 235.293 94.9238L235.127 95.1582L234.58 94.8555C235.049 94.1849 235.283 93.6055 235.283 93.1172C235.107 93.1172 234.938 93.0749 234.775 92.9902C234.613 92.9056 234.479 92.7884 234.375 92.6387C234.277 92.4824 234.229 92.3034 234.229 92.1016C234.229 91.8021 234.329 91.5482 234.531 91.3398C234.74 91.1315 234.984 91.0273 235.264 91.0273ZM245.889 84.3477C246.488 82.9414 247.461 82.2383 248.809 82.2383C249.46 82.2383 250.039 82.388 250.547 82.6875C251.061 82.987 251.468 83.4036 251.768 83.9375C252.367 84.9857 252.666 86.252 252.666 87.7363C252.666 89.2077 252.367 90.4772 251.768 91.5449C251.475 92.0723 251.071 92.4954 250.557 92.8145C250.049 93.127 249.525 93.2832 248.984 93.2832C248.47 93.2832 248.047 93.2279 247.715 93.1172C247.389 93.013 247.106 92.8503 246.865 92.6289C246.475 92.2708 246.149 91.7956 245.889 91.2031V97.1797H244.404V82.5215H245.889V84.3477ZM250.41 90.8223C250.911 90.0671 251.162 89.0384 251.162 87.7363C251.162 86.8835 251.048 86.1445 250.82 85.5195C250.599 84.888 250.29 84.4062 249.893 84.0742C249.495 83.7357 249.043 83.5664 248.535 83.5664C248.027 83.5664 247.568 83.7389 247.158 84.084C246.755 84.4225 246.432 84.9076 246.191 85.5391C245.957 86.1706 245.84 86.9062 245.84 87.7461C245.84 88.5859 245.957 89.3281 246.191 89.9727C246.432 90.6107 246.758 91.1022 247.168 91.4473C247.578 91.7923 248.034 91.9648 248.535 91.9648C249.29 91.9648 249.915 91.584 250.41 90.8223ZM259.756 83.8691C259.437 83.6738 259.033 83.5762 258.545 83.5762C258.05 83.5762 257.604 83.7715 257.207 84.1621C256.458 84.8913 256.084 86.0794 256.084 87.7266V93H254.6V82.5215H256.084V84.2891C256.201 83.9049 256.403 83.5566 256.689 83.2441C256.976 82.9316 257.314 82.6875 257.705 82.5117C258.096 82.3294 258.499 82.2383 258.916 82.2383C259.548 82.2383 260.088 82.3555 260.537 82.5898L259.756 83.8691ZM262.969 92.5312C262.337 92.043 261.855 91.3952 261.523 90.5879C261.198 89.7741 261.035 88.8952 261.035 87.9512C261.035 87.0658 261.123 86.2943 261.299 85.6367C261.481 84.9727 261.751 84.3867 262.109 83.8789C262.852 82.8372 263.916 82.3164 265.303 82.3164C266.201 82.3164 266.979 82.5605 267.637 83.0488C268.919 84.0059 269.561 85.5749 269.561 87.7559C269.561 89.9694 268.926 91.5612 267.656 92.5312C266.999 93.0326 266.217 93.2832 265.312 93.2832C264.408 93.2832 263.626 93.0326 262.969 92.5312ZM263.711 84.2109C263.307 84.5755 263.011 85.0508 262.822 85.6367C262.633 86.2161 262.539 86.8704 262.539 87.5996C262.539 88.2832 262.591 88.8757 262.695 89.377C262.799 89.8717 262.959 90.3177 263.174 90.7148C263.636 91.5482 264.346 91.9648 265.303 91.9648C266.676 91.9648 267.542 91.1022 267.9 89.377C268.005 88.8952 268.057 88.3027 268.057 87.5996C268.057 86.8704 267.962 86.2161 267.773 85.6367C267.585 85.0508 267.288 84.5755 266.885 84.2109C266.468 83.8333 265.941 83.6445 265.303 83.6445C264.658 83.6445 264.128 83.8333 263.711 84.2109ZM272.715 83.8398H271.328V82.5215H272.715V80.0801H274.189V82.5215H276.113V83.8398H274.189V90.9004C274.189 91.6621 274.57 92.043 275.332 92.043H276.016V93.2832H275.332C274.688 93.2832 274.173 93.2051 273.789 93.0488C273.411 92.8926 273.138 92.6452 272.969 92.3066C272.799 91.9616 272.715 91.5059 272.715 90.9395V83.8398ZM280.059 92.5312C279.427 92.043 278.945 91.3952 278.613 90.5879C278.288 89.7741 278.125 88.8952 278.125 87.9512C278.125 87.0658 278.213 86.2943 278.389 85.6367C278.571 84.9727 278.841 84.3867 279.199 83.8789C279.941 82.8372 281.006 82.3164 282.393 82.3164C283.291 82.3164 284.069 82.5605 284.727 83.0488C286.009 84.0059 286.65 85.5749 286.65 87.7559C286.65 89.9694 286.016 91.5612 284.746 92.5312C284.089 93.0326 283.307 93.2832 282.402 93.2832C281.497 93.2832 280.716 93.0326 280.059 92.5312ZM280.801 84.2109C280.397 84.5755 280.101 85.0508 279.912 85.6367C279.723 86.2161 279.629 86.8704 279.629 87.5996C279.629 88.2832 279.681 88.8757 279.785 89.377C279.889 89.8717 280.049 90.3177 280.264 90.7148C280.726 91.5482 281.436 91.9648 282.393 91.9648C283.766 91.9648 284.632 91.1022 284.99 89.377C285.094 88.8952 285.146 88.3027 285.146 87.5996C285.146 86.8704 285.052 86.2161 284.863 85.6367C284.674 85.0508 284.378 84.5755 283.975 84.2109C283.558 83.8333 283.031 83.6445 282.393 83.6445C281.748 83.6445 281.217 83.8333 280.801 84.2109ZM289.805 83.8398H288.418V82.5215H289.805V80.0801H291.279V82.5215H293.203V83.8398H291.279V90.9004C291.279 91.6621 291.66 92.043 292.422 92.043H293.105V93.2832H292.422C291.777 93.2832 291.263 93.2051 290.879 93.0488C290.501 92.8926 290.228 92.6452 290.059 92.3066C289.889 91.9616 289.805 91.5059 289.805 90.9395V83.8398ZM303.467 93.1758C303.467 93.8008 303.346 94.3835 303.105 94.9238C302.865 95.4707 302.539 95.9232 302.129 96.2812C301.276 97.0169 300.332 97.3848 299.297 97.3848C297.91 97.3848 296.729 96.8184 295.752 95.6855L296.787 94.8555C297.464 95.6562 298.301 96.0566 299.297 96.0566C299.746 96.0566 300.176 95.9525 300.586 95.7441C300.996 95.5358 301.331 95.2233 301.592 94.8066C301.852 94.3965 301.982 93.9017 301.982 93.3223V91.2324C301.859 91.623 301.654 91.9746 301.367 92.2871C301.087 92.5931 300.742 92.834 300.332 93.0098C299.928 93.1921 299.486 93.2832 299.004 93.2832C298.262 93.2832 297.62 93.0814 297.08 92.6777C296.54 92.2676 296.123 91.6556 295.83 90.8418C295.537 90.0215 295.391 89.0091 295.391 87.8047V82.5215H296.865V87.8047C296.865 89.7513 297.321 91.0241 298.232 91.623C298.564 91.8379 298.988 91.9453 299.502 91.9453C300.01 91.9453 300.462 91.75 300.859 91.3594C301.608 90.6302 301.982 89.4421 301.982 87.7949V82.5215H303.467V93.1758ZM307.354 84.3477C307.952 82.9414 308.926 82.2383 310.273 82.2383C310.924 82.2383 311.504 82.388 312.012 82.6875C312.526 82.987 312.933 83.4036 313.232 83.9375C313.831 84.9857 314.131 86.252 314.131 87.7363C314.131 89.2077 313.831 90.4772 313.232 91.5449C312.939 92.0723 312.536 92.4954 312.021 92.8145C311.514 93.127 310.99 93.2832 310.449 93.2832C309.935 93.2832 309.512 93.2279 309.18 93.1172C308.854 93.013 308.571 92.8503 308.33 92.6289C307.939 92.2708 307.614 91.7956 307.354 91.2031V97.1797H305.869V82.5215H307.354V84.3477ZM311.875 90.8223C312.376 90.0671 312.627 89.0384 312.627 87.7363C312.627 86.8835 312.513 86.1445 312.285 85.5195C312.064 84.888 311.755 84.4062 311.357 84.0742C310.96 83.7357 310.508 83.5664 310 83.5664C309.492 83.5664 309.033 83.7389 308.623 84.084C308.219 84.4225 307.897 84.9076 307.656 85.5391C307.422 86.1706 307.305 86.9062 307.305 87.7461C307.305 88.5859 307.422 89.3281 307.656 89.9727C307.897 90.6107 308.223 91.1022 308.633 91.4473C309.043 91.7923 309.499 91.9648 310 91.9648C310.755 91.9648 311.38 91.584 311.875 90.8223ZM316.084 80.0117C316.084 79.7448 316.172 79.5202 316.348 79.3379C316.53 79.1556 316.742 79.0645 316.982 79.0645C317.23 79.0645 317.448 79.1491 317.637 79.3184C317.826 79.4876 317.92 79.6992 317.92 79.9531C317.92 80.2135 317.829 80.4382 317.646 80.627C317.471 80.8092 317.266 80.9004 317.031 80.9004C316.784 80.9004 316.562 80.819 316.367 80.6562C316.178 80.487 316.084 80.2721 316.084 80.0117ZM316.27 82.5215H317.744V93H316.27V82.5215ZM321.748 93H320.264V82.5215H321.748V84.2891C321.872 83.8984 322.074 83.5501 322.354 83.2441C322.64 82.9316 322.985 82.6875 323.389 82.5117C323.799 82.3294 324.245 82.2383 324.727 82.2383C325.469 82.2383 326.11 82.4434 326.65 82.8535C327.191 83.2572 327.607 83.8691 327.9 84.6895C328.193 85.5033 328.34 86.5124 328.34 87.7168V93H326.865V87.7168C326.865 85.7702 326.41 84.4974 325.498 83.8984C325.166 83.6836 324.746 83.5762 324.238 83.5762C323.724 83.5762 323.268 83.7715 322.871 84.1621C322.122 84.8913 321.748 86.0794 321.748 87.7266V93ZM333.965 82.2383C335.319 82.2383 336.292 82.9414 336.885 84.3477V82.5215H338.369V93.1758C338.369 93.8073 338.258 94.3932 338.037 94.9336C337.816 95.474 337.513 95.9232 337.129 96.2812C336.335 97.0169 335.426 97.3848 334.404 97.3848C333.825 97.3848 333.278 97.2806 332.764 97.0723C332.249 96.8639 331.823 96.5872 331.484 96.2422C330.82 95.5716 330.439 94.8457 330.342 94.0645H331.738C331.797 94.4355 331.953 94.7708 332.207 95.0703C332.467 95.3763 332.786 95.6172 333.164 95.793C333.548 95.9688 333.952 96.0566 334.375 96.0566C334.811 96.0566 335.221 95.946 335.605 95.7246C335.99 95.5098 336.299 95.194 336.533 94.7773C336.768 94.3672 336.885 93.8822 336.885 93.3223V91.2031C336.436 92.2122 335.833 92.8503 335.078 93.1172C334.746 93.2279 334.349 93.2832 333.887 93.2832C333.418 93.2832 332.962 93.179 332.52 92.9707C332.083 92.7624 331.719 92.4824 331.426 92.1309C331.139 91.7858 330.892 91.3724 330.684 90.8906C330.299 89.9727 330.107 89.0352 330.107 88.0781C330.107 87.1471 330.179 86.3594 330.322 85.7148C330.472 85.0703 330.7 84.4746 331.006 83.9277C331.312 83.3939 331.719 82.9805 332.227 82.6875C332.734 82.388 333.314 82.2383 333.965 82.2383ZM332.363 84.6699C331.862 85.4186 331.611 86.4408 331.611 87.7363C331.611 88.5892 331.725 89.3346 331.953 89.9727C332.181 90.6107 332.493 91.1022 332.891 91.4473C333.294 91.7923 333.747 91.9648 334.248 91.9648C334.749 91.9648 335.205 91.7923 335.615 91.4473C336.025 91.1022 336.348 90.6107 336.582 89.9727C336.816 89.3281 336.934 88.5859 336.934 87.7461C336.934 86.9062 336.813 86.1706 336.572 85.5391C336.338 84.9076 336.016 84.4225 335.605 84.084C335.202 83.7389 334.746 83.5664 334.238 83.5664C333.49 83.5664 332.865 83.9342 332.363 84.6699ZM341.416 91.0273C341.663 91.0273 341.885 91.1022 342.08 91.252C342.275 91.4017 342.393 91.5579 342.432 91.7207C342.464 91.8835 342.48 92.0397 342.48 92.1895C342.48 92.3587 342.454 92.5671 342.402 92.8145C342.357 93.0618 342.298 93.2832 342.227 93.4785C342.161 93.6543 342.077 93.8431 341.973 94.0449C341.868 94.2467 341.774 94.4128 341.689 94.543C341.683 94.5495 341.602 94.6764 341.445 94.9238L341.279 95.1582L340.732 94.8555C341.201 94.1849 341.436 93.6055 341.436 93.1172C341.26 93.1172 341.09 93.0749 340.928 92.9902C340.765 92.9056 340.632 92.7884 340.527 92.6387C340.43 92.4824 340.381 92.3034 340.381 92.1016C340.381 91.8021 340.482 91.5482 340.684 91.3398C340.892 91.1315 341.136 91.0273 341.416 91.0273ZM351.777 87.7754C351.777 88.5697 351.924 89.276 352.217 89.8945C352.516 90.5065 352.894 90.9818 353.35 91.3203C353.812 91.6523 354.271 91.8184 354.727 91.8184C355.391 91.8184 355.951 91.6133 356.406 91.2031C357.331 90.4023 357.793 89.2598 357.793 87.7754V78.7812H359.336V87.7754C359.336 88.8301 359.144 89.7773 358.76 90.6172C358.376 91.4505 357.842 92.1048 357.158 92.5801C356.475 93.0488 355.693 93.2832 354.814 93.2832C354.066 93.2832 353.353 93.0749 352.676 92.6582C352.005 92.2415 351.458 91.6165 351.035 90.7832C350.612 89.9499 350.4 88.9473 350.4 87.7754H351.777ZM364.893 85.998C365.322 85.998 365.726 86.0794 366.104 86.2422C366.488 86.4049 366.803 86.6068 367.051 86.8477C367.305 87.0885 367.458 87.3197 367.51 87.541V86.6035C367.51 85.679 367.301 84.9629 366.885 84.4551C366.475 83.9408 365.889 83.6836 365.127 83.6836C364.684 83.6836 364.261 83.7552 363.857 83.8984C363.46 84.0352 363.151 84.2142 362.93 84.4355L362.168 83.4199C363.034 82.7103 364.017 82.3555 365.117 82.3555C365.846 82.3555 366.494 82.5247 367.061 82.8633C367.633 83.2018 368.079 83.6934 368.398 84.3379C368.724 84.9759 368.887 85.7311 368.887 86.6035V93H367.529V91.4766C367.49 91.6979 367.34 91.9518 367.08 92.2383C366.82 92.5247 366.491 92.7721 366.094 92.9805C365.703 93.1823 365.299 93.2832 364.883 93.2832C364.186 93.2832 363.561 93.1302 363.008 92.8242C362.461 92.5182 362.031 92.0918 361.719 91.5449C361.406 90.9915 361.25 90.3665 361.25 89.6699C361.25 88.9733 361.41 88.3451 361.729 87.7852C362.054 87.2253 362.493 86.7891 363.047 86.4766C363.607 86.1576 364.222 85.998 364.893 85.998ZM367.529 89.6211C367.529 89.1914 367.419 88.8008 367.197 88.4492C366.982 88.0977 366.689 87.821 366.318 87.6191C365.947 87.4173 365.544 87.3164 365.107 87.3164C364.671 87.3164 364.274 87.4206 363.916 87.6289C363.558 87.8372 363.275 88.1204 363.066 88.4785C362.858 88.8366 362.754 89.2305 362.754 89.6602C362.754 90.0898 362.858 90.4805 363.066 90.832C363.281 91.1836 363.571 91.4603 363.936 91.6621C364.307 91.8639 364.71 91.9648 365.146 91.9648C365.583 91.9648 365.983 91.8607 366.348 91.6523C366.712 91.444 366.999 91.1608 367.207 90.8027C367.422 90.4447 367.529 90.0508 367.529 89.6211ZM378.477 93H376.992V87.6582C376.992 86.1217 376.81 85.0378 376.445 84.4062C376.133 83.8529 375.654 83.5762 375.01 83.5762C373.59 83.5762 372.881 84.9271 372.881 87.6289V93H371.396V82.5215H372.881V84.2988C373.148 83.7389 373.398 83.3158 373.633 83.0293C373.874 82.7363 374.144 82.5312 374.443 82.4141C374.743 82.2969 375.12 82.2383 375.576 82.2383C376.221 82.2383 376.787 82.4596 377.275 82.9023C377.764 83.3385 378.099 83.9049 378.281 84.6016C378.457 83.8984 378.792 83.3288 379.287 82.8926C379.782 82.4564 380.374 82.2383 381.064 82.2383C382.074 82.2383 382.826 82.6191 383.32 83.3809C383.822 84.1361 384.072 85.2168 384.072 86.623V93H382.598V87.6973C382.598 86.3626 382.487 85.4219 382.266 84.875C382.044 84.3216 381.751 83.9603 381.387 83.791C381.172 83.6934 380.924 83.6445 380.645 83.6445C379.199 83.6445 378.477 84.9759 378.477 87.6387V93ZM387.861 84.3477C388.46 82.9414 389.434 82.2383 390.781 82.2383C391.432 82.2383 392.012 82.388 392.52 82.6875C393.034 82.987 393.441 83.4036 393.74 83.9375C394.339 84.9857 394.639 86.252 394.639 87.7363C394.639 89.2077 394.339 90.4772 393.74 91.5449C393.447 92.0723 393.044 92.4954 392.529 92.8145C392.021 93.127 391.497 93.2832 390.957 93.2832C390.443 93.2832 390.02 93.2279 389.688 93.1172C389.362 93.013 389.079 92.8503 388.838 92.6289C388.447 92.2708 388.122 91.7956 387.861 91.2031V93H386.377V78.8008H387.861V84.3477ZM392.383 90.8223C392.884 90.0671 393.135 89.0384 393.135 87.7363C393.135 86.8835 393.021 86.1445 392.793 85.5195C392.572 84.888 392.262 84.4062 391.865 84.0742C391.468 83.7357 391.016 83.5664 390.508 83.5664C390 83.5664 389.541 83.7389 389.131 84.084C388.727 84.4225 388.405 84.9076 388.164 85.5391C387.93 86.1706 387.812 86.9062 387.812 87.7461C387.812 88.5859 387.93 89.3281 388.164 89.9727C388.405 90.6107 388.73 91.1022 389.141 91.4473C389.551 91.7923 390.007 91.9648 390.508 91.9648C391.263 91.9648 391.888 91.584 392.383 90.8223ZM398.242 92.5312C397.611 92.043 397.129 91.3952 396.797 90.5879C396.471 89.7741 396.309 88.8952 396.309 87.9512C396.309 87.0658 396.396 86.2943 396.572 85.6367C396.755 84.9727 397.025 84.3867 397.383 83.8789C398.125 82.8372 399.189 82.3164 400.576 82.3164C401.475 82.3164 402.253 82.5605 402.91 83.0488C404.193 84.0059 404.834 85.5749 404.834 87.7559C404.834 89.9694 404.199 91.5612 402.93 92.5312C402.272 93.0326 401.491 93.2832 400.586 93.2832C399.681 93.2832 398.9 93.0326 398.242 92.5312ZM398.984 84.2109C398.581 84.5755 398.285 85.0508 398.096 85.6367C397.907 86.2161 397.812 86.8704 397.812 87.5996C397.812 88.2832 397.865 88.8757 397.969 89.377C398.073 89.8717 398.232 90.3177 398.447 90.7148C398.91 91.5482 399.619 91.9648 400.576 91.9648C401.95 91.9648 402.816 91.1022 403.174 89.377C403.278 88.8952 403.33 88.3027 403.33 87.5996C403.33 86.8704 403.236 86.2161 403.047 85.6367C402.858 85.0508 402.562 84.5755 402.158 84.2109C401.742 83.8333 401.214 83.6445 400.576 83.6445C399.932 83.6445 399.401 83.8333 398.984 84.2109ZM410.068 85.998C410.498 85.998 410.902 86.0794 411.279 86.2422C411.663 86.4049 411.979 86.6068 412.227 86.8477C412.48 87.0885 412.633 87.3197 412.686 87.541V86.6035C412.686 85.679 412.477 84.9629 412.061 84.4551C411.65 83.9408 411.064 83.6836 410.303 83.6836C409.86 83.6836 409.437 83.7552 409.033 83.8984C408.636 84.0352 408.327 84.2142 408.105 84.4355L407.344 83.4199C408.21 82.7103 409.193 82.3555 410.293 82.3555C411.022 82.3555 411.67 82.5247 412.236 82.8633C412.809 83.2018 413.255 83.6934 413.574 84.3379C413.9 84.9759 414.062 85.7311 414.062 86.6035V93H412.705V91.4766C412.666 91.6979 412.516 91.9518 412.256 92.2383C411.995 92.5247 411.667 92.7721 411.27 92.9805C410.879 93.1823 410.475 93.2832 410.059 93.2832C409.362 93.2832 408.737 93.1302 408.184 92.8242C407.637 92.5182 407.207 92.0918 406.895 91.5449C406.582 90.9915 406.426 90.3665 406.426 89.6699C406.426 88.9733 406.585 88.3451 406.904 87.7852C407.23 87.2253 407.669 86.7891 408.223 86.4766C408.783 86.1576 409.398 85.998 410.068 85.998ZM412.705 89.6211C412.705 89.1914 412.594 88.8008 412.373 88.4492C412.158 88.0977 411.865 87.821 411.494 87.6191C411.123 87.4173 410.719 87.3164 410.283 87.3164C409.847 87.3164 409.45 87.4206 409.092 87.6289C408.734 87.8372 408.451 88.1204 408.242 88.4785C408.034 88.8366 407.93 89.2305 407.93 89.6602C407.93 90.0898 408.034 90.4805 408.242 90.832C408.457 91.1836 408.747 91.4603 409.111 91.6621C409.482 91.8639 409.886 91.9648 410.322 91.9648C410.758 91.9648 411.159 91.8607 411.523 91.6523C411.888 91.444 412.174 91.1608 412.383 90.8027C412.598 90.4447 412.705 90.0508 412.705 89.6211ZM421.729 83.8691C421.41 83.6738 421.006 83.5762 420.518 83.5762C420.023 83.5762 419.577 83.7715 419.18 84.1621C418.431 84.8913 418.057 86.0794 418.057 87.7266V93H416.572V82.5215H418.057V84.2891C418.174 83.9049 418.376 83.5566 418.662 83.2441C418.949 82.9316 419.287 82.6875 419.678 82.5117C420.068 82.3294 420.472 82.2383 420.889 82.2383C421.52 82.2383 422.061 82.3555 422.51 82.5898L421.729 83.8691ZM426.582 82.2383C427.936 82.2383 428.91 82.9414 429.502 84.3477V78.8008H430.986V93H429.502V91.2031C429.209 91.8737 428.835 92.388 428.379 92.7461C427.93 93.1042 427.363 93.2832 426.68 93.2832C425.983 93.2832 425.374 93.1302 424.854 92.8242C424.339 92.5182 423.929 92.0918 423.623 91.5449C423.024 90.4772 422.725 89.2077 422.725 87.7363C422.725 86.252 423.024 84.9857 423.623 83.9375C423.923 83.4036 424.326 82.987 424.834 82.6875C425.348 82.388 425.931 82.2383 426.582 82.2383ZM424.98 84.6699C424.479 85.4186 424.229 86.4408 424.229 87.7363C424.229 88.5892 424.342 89.3346 424.57 89.9727C424.798 90.6107 425.111 91.1022 425.508 91.4473C425.911 91.7923 426.364 91.9648 426.865 91.9648C427.367 91.9648 427.822 91.7923 428.232 91.4473C428.643 91.1022 428.965 90.6107 429.199 89.9727C429.434 89.3281 429.551 88.5859 429.551 87.7461C429.551 86.9062 429.43 86.1706 429.189 85.5391C428.955 84.9076 428.633 84.4225 428.223 84.084C427.819 83.7389 427.363 83.5664 426.855 83.5664C426.107 83.5664 425.482 83.9342 424.98 84.6699Z" fill="black"/>
<defs>
<filter id="filter0_d_42_64" x="0" y="0" width="479" height="146" filterUnits="userSpaceOnUse" color-interpolation-filters="sRGB">
<feFlood flood-opacity="0" result="BackgroundImageFix"/>
<feColorMatrix in="SourceAlpha" type="matrix" values="0 0 0 0 0 0 0 0 0 0 0 0 0 0 0 0 0 0 127 0" result="hardAlpha"/>
<feMorphology radius="3" operator="dilate" in="SourceAlpha" result="effect1_dropShadow_42_64"/>
<feOffset dx="3" dy="3"/>
<feGaussianBlur stdDeviation="5"/>
<feComposite in2="hardAlpha" operator="out"/>
<feColorMatrix type="matrix" values="0 0 0 0 1 0 0 0 0 0.968627 0 0 0 0 0.694118 0 0 0 1 0"/>
<feBlend mode="normal" in2="BackgroundImageFix" result="effect1_dropShadow_42_64"/>
<feBlend mode="normal" in="SourceGraphic" in2="effect1_dropShadow_42_64" result="shape"/>
</filter>
</defs>
</svg>
