<svg width="1728" height="207" viewBox="0 0 1728 207" fill="none" xmlns="http://www.w3.org/2000/svg">
<path d="M369.5 62.0001C242 36.5001 92.5 88 0 127V181C50.5 145.667 251 64.0001 381.5 91.5001C483.5 112.994 503.775 161.73 651 169C813 177 869.872 121.896 985 143.671C1148 174.5 1268.5 183.5 1366.5 162C1453.98 142.808 1530.13 107.359 1633 126C1707.5 139.5 1725.33 158.667 1728 164.5V132C1728 132 1713.38 110.418 1633 99.0001C1545 86.5001 1468.8 109 1356 136.5C1238 165.268 1118 119.5 989.5 110.5C831.01 99.3996 774 140 651 136.5C522.622 132.847 521.037 92.3074 369.5 62.0001Z" fill="#FFDCFB" fill-opacity="0.5"/>
<path d="M300 99.3162C200.4 51.4501 105.5 5.50151e-05 0 0V45C80.5 37.5 170.5 63.5001 289 115.5C366 149.289 428 183.855 583.5 203C774.5 226.515 938.491 117.214 1118 95.5001C1307.5 72.5772 1629 156.041 1728 203.052V173.524C1625.5 128.844 1338 54.5133 1100.5 68.5001C886.637 81.0948 730 180 583.5 174C501.319 170.634 424.5 159.149 300 99.3162Z" fill="#BAD9FF" fill-opacity="0.5"/>
<path d="M222 98.4999C143.351 71.5057 82.5 56.9853 0 65.0001V109C82 81.0001 105.664 107.852 222 131.433C358 159 527.5 104.398 665 120C794.5 134.694 992.245 194.491 1245.5 120C1451 59.5552 1590.5 87.3986 1728 142.5V111.5C1687.5 93.8008 1549.1 48.4502 1417 59C1273 70.5001 1122.5 126.09 980.5 131.433C850.5 136.324 798.5 94.034 665 85.5001C513.5 75.8155 340 139 222 98.4999Z" fill="#BAEEFF" fill-opacity="0.5"/>
</svg>
